# Blender v2.78 (sub 0) OBJ File: 'untitled.blend'
# www.blender.org
o Plane
v -34.207920 0.378868 34.223331
v 33.318310 0.378868 34.223331
v -34.207920 0.378868 -34.817165
v 33.318310 0.378868 -34.817165
v -34.958214 0.378868 -0.296919
v -0.444805 0.378868 34.990448
v 34.068604 0.378868 -0.296919
v -0.444805 0.378868 -35.584282
v -0.444805 5.371456 -0.296919
v -34.958214 0.378868 18.113880
v 17.562189 0.378868 34.990448
v 34.068604 0.378868 -18.707718
v -18.451799 0.378868 -35.584282
v -34.958214 0.378868 -18.707718
v -18.451799 0.378868 34.990448
v 34.068604 0.378868 18.113880
v 17.562189 0.378868 -35.584282
v -0.444805 0.643329 -18.707718
v -0.444805 4.229581 18.113880
v -18.451799 0.643329 -0.296919
v 17.562189 4.563834 -0.296919
v 17.562189 5.889891 18.113880
v -18.451799 0.378868 18.113880
v -18.451799 0.378868 -18.707718
v 17.562189 0.378868 -18.707718
v -34.958214 0.378868 27.319281
v 26.565685 0.378868 34.990448
v 34.068604 0.378868 -27.913118
v -27.455296 0.378868 -35.584282
v -34.958214 0.378868 -9.502318
v -9.448302 0.378868 34.990448
v 34.068604 0.378868 8.908481
v 8.558692 0.378868 -35.584282
v -0.444805 0.378868 -27.913118
v -0.444805 6.469758 8.908481
v -27.455296 0.378868 -0.296919
v 8.558692 6.553321 -0.296919
v -34.958214 0.378868 8.908481
v 8.558692 0.378868 34.990448
v 34.068604 0.378868 -9.502318
v -9.448302 0.378868 -35.584282
v -34.958214 0.378868 -27.913118
v -27.455296 0.378868 34.990448
v 34.068604 0.378868 27.319281
v 26.565685 0.378868 -35.584282
v -0.444805 2.357838 -9.502318
v -0.444805 0.882294 27.319281
v -9.448302 2.357838 -0.296919
v 26.565685 0.965857 -0.296919
v 17.562189 6.815160 8.908481
v 17.562189 1.297372 27.319281
v 8.558692 6.731596 18.113880
v 26.565685 1.297372 18.113880
v -18.451799 0.378868 8.908481
v -18.451799 0.378868 27.319281
v -27.455296 0.378868 18.113880
v -9.448302 0.882294 18.113880
v -18.451799 0.378868 -27.913118
v -18.451799 0.643329 -9.502318
v -27.455296 0.378868 -18.707718
v -9.448302 0.643329 -18.707718
v 17.562189 0.378868 -27.913118
v 17.562189 0.965857 -9.502318
v 8.558692 0.378868 -18.707718
v 26.565685 0.378868 -18.707718
v 26.565685 0.378868 -9.502318
v 8.558692 1.561833 -9.502318
v 8.558692 0.378868 -27.913118
v -9.448302 1.965634 -9.502318
v -27.455296 0.378868 -9.502318
v -27.455296 0.378868 -27.913118
v -9.448302 0.378868 27.319281
v -27.455296 0.378868 27.319281
v -27.455296 0.378868 8.908481
v 26.565685 0.378868 27.319281
v 8.558692 1.297372 27.319281
v 8.558692 9.080018 8.908481
v 26.565685 1.297372 8.908481
v -9.448302 1.561833 8.908481
v -9.448302 0.378868 -27.913118
v 26.565685 0.378868 -27.913118
vt 0.8750 0.8750
vt 1.0000 1.0000
vt 0.8750 1.0000
vt 0.5000 0.8750
vt 0.3750 1.0000
vt 0.3750 0.8750
vt 0.3750 0.3750
vt 0.5000 0.5000
vt 0.3750 0.5000
vt 1.0000 0.3750
vt 0.8750 0.5000
vt 0.8750 0.3750
vt 0.7500 0.3750
vt 0.6250 0.5000
vt 0.6250 0.3750
vt 0.6250 0.1250
vt 0.7500 0.2500
vt 0.6250 0.2500
vt 0.8750 0.1250
vt 1.0000 0.2500
vt 0.8750 0.2500
vt 0.2500 0.3750
vt 0.1250 0.5000
vt 0.1250 0.3750
vt 0.2500 0.1250
vt 0.1250 0.2500
vt 0.1250 0.1250
vt 0.5000 0.1250
vt 0.3750 0.2500
vt 0.3750 0.1250
vt 0.2500 0.8750
vt 0.1250 1.0000
vt 0.1250 0.8750
vt 0.1250 0.6250
vt 0.2500 0.7500
vt 0.1250 0.7500
vt 0.3750 0.6250
vt 0.5000 0.7500
vt 0.3750 0.7500
vt 0.7500 0.8750
vt 0.6250 1.0000
vt 0.6250 0.8750
vt 0.7500 0.6250
vt 0.6250 0.7500
vt 0.6250 0.6250
vt 1.0000 0.6250
vt 0.8750 0.7500
vt 0.8750 0.6250
vt 0.7500 0.7500
vt 0.7500 0.5000
vt 1.0000 0.5000
vt 0.5000 0.6250
vt 0.5000 1.0000
vt 0.2500 0.6250
vt 0.2500 0.5000
vt 0.0000 0.7500
vt 0.0000 0.6250
vt 0.0000 0.5000
vt 0.0000 1.0000
vt 0.0000 0.8750
vt 0.2500 0.2500
vt 0.3750 0.0000
vt 0.2500 0.0000
vt 0.5000 0.0000
vt 0.0000 0.2500
vt 0.0000 0.1250
vt 0.0000 0.0000
vt 0.1250 0.0000
vt 0.0000 0.3750
vt 0.7500 0.1250
vt 0.7500 0.0000
vt 1.0000 0.0000
vt 0.8750 0.0000
vt 0.5000 0.2500
vt 0.6250 0.0000
vt 0.5000 0.3750
vt 0.2500 1.0000
vt 0.7500 1.0000
vt 1.0000 0.7500
vt 1.0000 0.8750
vt 1.0000 0.1250
vn 0.0000 1.0000 0.0000
vn -0.3163 0.9451 0.0817
vn 0.1214 0.9920 -0.0357
vn 0.2357 0.9372 -0.2572
vn 0.0802 0.8584 0.5067
vn 0.1209 0.9878 0.0986
vn -0.0557 0.9970 0.0545
vn 0.0000 0.9898 -0.1422
vn 0.0655 0.9897 -0.1272
vn 0.0649 0.9959 -0.0635
vn 0.3488 0.8729 -0.3412
vn 0.0778 0.9949 -0.0634
vn 0.0866 0.9794 -0.1824
vn 0.0837 0.9470 -0.3100
vn 0.1907 0.8630 -0.4679
vn 0.0293 0.9992 -0.0287
vn -0.0293 0.9992 -0.0287
vn -0.1453 0.9894 0.0000
vn -0.0435 0.9981 -0.0425
vn -0.0294 0.9996 0.0000
vn 0.4152 0.8140 0.4061
vn 0.1008 0.9879 0.1183
vn -0.0433 0.9389 0.3414
vn 0.0000 0.9979 0.0655
vn 0.0000 0.9929 0.1189
vn -0.1292 0.9846 -0.1175
vn -0.2607 0.9380 0.2283
vn 0.2368 0.9414 0.2402
vn 0.5115 0.8347 -0.2041
vn 0.5206 0.8495 0.0854
vn 0.1215 0.9926 0.0000
vn -0.1302 0.9911 0.0285
vn -0.0558 0.9984 0.0000
vn -0.3476 0.9351 0.0690
vn 0.0000 0.9996 -0.0287
vn -0.4760 0.8732 -0.1042
vn 0.0780 0.9970 0.0000
vn 0.2099 0.9497 -0.2323
vn 0.0000 0.8948 0.4464
vn -0.0293 0.9992 0.0287
vn -0.3298 0.8872 0.3226
vn -0.0428 0.9822 -0.1829
vn 0.0000 0.9980 -0.0636
vn 0.0291 0.9914 -0.1274
vn -0.1146 0.8733 -0.4735
vn 0.0615 0.9296 -0.3633
vn -0.1439 0.9795 -0.1407
vn -0.1869 0.9815 -0.0418
vn -0.3031 0.9057 -0.2965
vn -0.0557 0.9963 0.0654
vn 0.1010 0.9900 0.0988
vn -0.2327 0.8375 0.4944
vn -0.0457 0.9919 0.1188
vn -0.2693 0.9287 -0.2549
vn -0.2705 0.9329 0.2380
vn 0.0926 0.9907 0.0996
vn 0.3709 0.9281 -0.0334
vn 0.4544 0.8908 0.0000
vn -0.1864 0.9788 0.0846
vn -0.1299 0.9888 0.0730
vn -0.4681 0.8586 0.2090
s off
f 81/1/1 4/2/1 45/3/1
f 34/4/1 41/5/1 80/6/1
f 79/7/2 9/8/2 48/9/2
f 32/10/3 49/11/3 78/12/3
f 50/13/4 37/14/4 77/15/4
f 76/16/5 22/17/5 52/18/5
f 75/19/6 16/20/6 53/21/6
f 54/22/1 36/23/1 74/24/1
f 55/25/1 56/26/1 73/27/1
f 47/28/7 57/29/7 72/30/7
f 58/31/1 29/32/1 71/33/1
f 70/34/1 24/35/1 60/36/1
f 69/37/8 18/38/8 61/39/8
f 62/40/1 33/41/1 68/42/1
f 63/43/9 64/44/9 67/45/9
f 40/46/1 65/47/1 66/48/1
f 66/48/10 25/49/10 63/43/10
f 49/11/11 63/43/11 21/50/11
f 7/51/12 66/48/12 49/11/12
f 67/45/13 18/38/13 46/52/13
f 9/8/14 67/45/14 46/52/14
f 21/50/15 67/45/15 37/14/15
f 68/42/1 8/53/1 34/4/1
f 64/44/16 34/4/16 18/38/16
f 25/49/1 68/42/1 64/44/1
f 59/54/17 61/39/17 24/35/17
f 20/55/18 69/37/18 59/54/18
f 48/9/19 46/52/19 69/37/19
f 70/34/1 14/56/1 30/57/1
f 36/23/1 30/57/1 5/58/1
f 20/55/20 70/34/20 36/23/20
f 71/33/1 3/59/1 42/60/1
f 60/36/1 42/60/1 14/56/1
f 24/35/1 71/33/1 60/36/1
f 72/30/1 23/61/1 55/25/1
f 31/62/1 55/25/1 15/63/1
f 6/64/1 72/30/1 31/62/1
f 73/27/1 10/65/1 26/66/1
f 1/67/1 73/27/1 26/66/1
f 15/63/1 73/27/1 43/68/1
f 74/24/1 5/58/1 38/69/1
f 56/26/1 38/69/1 10/65/1
f 23/61/1 74/24/1 56/26/1
f 51/70/21 53/21/21 22/17/21
f 11/71/22 75/19/22 51/70/22
f 2/72/1 75/19/1 27/73/1
f 76/16/23 19/74/23 47/28/23
f 39/75/24 47/28/24 6/64/24
f 11/71/25 76/16/25 39/75/25
f 35/76/26 37/14/26 9/8/26
f 52/18/27 35/76/27 19/74/27
f 52/18/28 50/13/28 77/15/28
f 78/12/29 21/50/29 50/13/29
f 22/17/30 78/12/30 50/13/30
f 16/20/31 78/12/31 53/21/31
f 79/7/32 20/55/32 54/22/32
f 57/29/33 54/22/33 23/61/33
f 19/74/34 79/7/34 57/29/34
f 80/6/1 13/77/1 58/31/1
f 24/35/1 80/6/1 58/31/1
f 18/38/35 80/6/35 61/39/35
f 81/1/1 17/78/1 62/40/1
f 65/47/1 62/40/1 25/49/1
f 12/79/1 81/1/1 65/47/1
f 81/1/1 28/80/1 4/2/1
f 34/4/1 8/53/1 41/5/1
f 79/7/36 35/76/36 9/8/36
f 32/10/37 7/51/37 49/11/37
f 50/13/38 21/50/38 37/14/38
f 76/16/39 51/70/39 22/17/39
f 75/19/1 44/81/1 16/20/1
f 54/22/40 20/55/40 36/23/40
f 55/25/1 23/61/1 56/26/1
f 47/28/41 19/74/41 57/29/41
f 58/31/1 13/77/1 29/32/1
f 70/34/17 59/54/17 24/35/17
f 69/37/42 46/52/42 18/38/42
f 62/40/1 17/78/1 33/41/1
f 63/43/43 25/49/43 64/44/43
f 40/46/1 12/79/1 65/47/1
f 66/48/1 65/47/1 25/49/1
f 49/11/10 66/48/10 63/43/10
f 7/51/1 40/46/1 66/48/1
f 67/45/44 64/44/44 18/38/44
f 9/8/45 37/14/45 67/45/45
f 21/50/46 63/43/46 67/45/46
f 68/42/1 33/41/1 8/53/1
f 64/44/1 68/42/1 34/4/1
f 25/49/1 62/40/1 68/42/1
f 59/54/47 69/37/47 61/39/47
f 20/55/48 48/9/48 69/37/48
f 48/9/49 9/8/49 46/52/49
f 70/34/1 60/36/1 14/56/1
f 36/23/1 70/34/1 30/57/1
f 20/55/20 59/54/20 70/34/20
f 71/33/1 29/32/1 3/59/1
f 60/36/1 71/33/1 42/60/1
f 24/35/1 58/31/1 71/33/1
f 72/30/7 57/29/7 23/61/7
f 31/62/1 72/30/1 55/25/1
f 6/64/50 47/28/50 72/30/50
f 73/27/1 56/26/1 10/65/1
f 1/67/1 43/68/1 73/27/1
f 15/63/1 55/25/1 73/27/1
f 74/24/1 36/23/1 5/58/1
f 56/26/1 74/24/1 38/69/1
f 23/61/1 54/22/1 74/24/1
f 51/70/51 75/19/51 53/21/51
f 11/71/1 27/73/1 75/19/1
f 2/72/1 44/81/1 75/19/1
f 76/16/52 52/18/52 19/74/52
f 39/75/53 76/16/53 47/28/53
f 11/71/25 51/70/25 76/16/25
f 35/76/54 77/15/54 37/14/54
f 52/18/55 77/15/55 35/76/55
f 52/18/56 22/17/56 50/13/56
f 78/12/57 49/11/57 21/50/57
f 22/17/58 53/21/58 78/12/58
f 16/20/31 32/10/31 78/12/31
f 79/7/59 48/9/59 20/55/59
f 57/29/60 79/7/60 54/22/60
f 19/74/61 35/76/61 79/7/61
f 80/6/1 41/5/1 13/77/1
f 24/35/17 61/39/17 80/6/17
f 18/38/35 34/4/35 80/6/35
f 81/1/1 45/3/1 17/78/1
f 65/47/1 81/1/1 62/40/1
f 12/79/1 28/80/1 81/1/1
