# Blender v2.78 (sub 0) OBJ File: 'post.blend'
# www.blender.org
o Plane
v -1.000000 0.000000 3.018851
v 1.000000 0.000000 3.018851
v -1.000000 0.000000 -3.018851
v 1.000000 0.000000 -3.018851
v -1.000000 0.000000 0.000000
v 0.000000 0.000000 3.018851
v 1.000000 0.000000 0.000000
v 0.000000 0.000000 -3.018851
v 0.000000 0.000000 0.000000
v -1.000000 0.000000 1.509425
v 0.500000 0.000000 3.018851
v 1.000000 0.000000 -1.509425
v -0.500000 0.000000 -3.018851
v -1.000000 0.000000 -1.509425
v -0.500000 0.000000 3.018851
v 1.000000 0.000000 1.509425
v 0.500000 0.000000 -3.018851
v 0.000000 0.000000 -1.509425
v 0.000000 0.000000 1.509425
v -0.500000 0.000000 0.000000
v 0.500000 0.000000 0.000000
v 0.500000 0.000000 1.509425
v -0.500000 0.000000 1.509425
v -0.500000 0.000000 -1.509425
v 0.500000 0.000000 -1.509425
v -1.000000 1.030453 1.509425
v -1.000000 1.030453 3.018851
v -0.500000 1.030453 -3.018851
v -1.000000 1.030453 -3.018851
v -1.000000 1.030453 -1.509425
v -1.000000 1.030453 0.000000
v -0.500000 1.030453 0.000000
v -0.500000 1.030453 3.018851
v -0.500000 1.030453 1.509425
v -0.500000 1.030453 -1.509425
vn 0.0000 1.0000 0.0000
vn 1.0000 0.0000 0.0000
vn -1.0000 0.0000 0.0000
vn 0.0000 0.0000 1.0000
vn 0.0000 0.0000 -1.0000
s off
f 12//1 17//1 25//1
f 18//1 13//1 24//1
f 19//1 20//1 23//1
f 16//1 21//1 22//1
f 22//1 9//1 19//1
f 11//1 19//1 6//1
f 2//1 22//1 11//1
f 20//2 34//2 23//2
f 5//3 30//3 14//3
f 6//1 23//1 15//1
f 15//4 27//4 1//4
f 1//3 26//3 10//3
f 9//1 24//1 20//1
f 25//1 8//1 18//1
f 21//1 18//1 9//1
f 7//1 25//1 21//1
f 34//1 31//1 26//1
f 33//1 26//1 27//1
f 35//1 29//1 30//1
f 32//1 30//1 31//1
f 13//2 35//2 24//2
f 23//2 33//2 15//2
f 10//3 31//3 5//3
f 24//2 32//2 20//2
f 14//3 29//3 3//3
f 3//5 28//5 13//5
f 12//1 4//1 17//1
f 18//1 8//1 13//1
f 19//1 9//1 20//1
f 16//1 7//1 21//1
f 22//1 21//1 9//1
f 11//1 22//1 19//1
f 2//1 16//1 22//1
f 20//2 32//2 34//2
f 5//3 31//3 30//3
f 6//1 19//1 23//1
f 15//4 33//4 27//4
f 1//3 27//3 26//3
f 9//1 18//1 24//1
f 25//1 17//1 8//1
f 21//1 25//1 18//1
f 7//1 12//1 25//1
f 34//1 32//1 31//1
f 33//1 34//1 26//1
f 35//1 28//1 29//1
f 32//1 35//1 30//1
f 13//2 28//2 35//2
f 23//2 34//2 33//2
f 10//3 26//3 31//3
f 24//2 35//2 32//2
f 14//3 30//3 29//3
f 3//5 29//5 28//5
