# Blender v2.78 (sub 0) OBJ File: 'untitled.blend'
# www.blender.org
o Plane
v -34.207920 0.378868 34.223331
v 33.318310 0.378868 34.223331
v -34.207920 0.378868 -34.817165
v 33.318310 0.378868 -34.817165
v -34.958214 0.378868 -0.296919
v -0.444805 0.378868 34.990448
v 34.068604 0.378868 -0.296919
v -0.444805 0.378868 -35.584282
v -0.444805 5.371456 -0.296919
v -34.958214 0.378868 18.113880
v 17.562189 0.378868 34.990448
v 34.068604 0.378868 -18.707718
v -18.451799 0.378868 -35.584282
v -34.958214 0.378868 -18.707718
v -18.451799 0.378868 34.990448
v 34.068604 0.378868 18.113880
v 17.562189 0.378868 -35.584282
v -0.444805 0.643329 -18.707718
v -0.444805 4.229581 18.113880
v -18.451799 0.643329 -0.296919
v 17.562189 4.563834 -0.296919
v 17.562189 5.889891 18.113880
v -18.451799 0.378868 18.113880
v -18.451799 0.378868 -18.707718
v 17.562189 0.378868 -18.707718
v -34.958214 0.378868 27.319281
v 26.565685 0.378868 34.990448
v 34.068604 0.378868 -27.913118
v -27.455296 0.378868 -35.584282
v -34.958214 0.378868 -9.502318
v -9.448302 0.378868 34.990448
v 34.068604 0.378868 8.908481
v 8.558692 0.378868 -35.584282
v -0.444805 0.378868 -27.913118
v -0.444805 6.469758 8.908481
v -27.455296 0.378868 -0.296919
v 8.558692 6.553321 -0.296919
v -34.958214 0.378868 8.908481
v 8.558692 0.378868 34.990448
v 34.068604 0.378868 -9.502318
v -9.448302 0.378868 -35.584282
v -34.958214 0.378868 -27.913118
v -27.455296 0.378868 34.990448
v 34.068604 0.378868 27.319281
v 26.565685 0.378868 -35.584282
v -0.444805 2.357838 -9.502318
v -0.444805 0.882294 27.319281
v -9.448302 2.357838 -0.296919
v 26.565685 0.965857 -0.296919
v 17.562189 6.815160 8.908481
v 17.562189 1.297372 27.319281
v 8.558692 6.731596 18.113880
v 26.565685 1.297372 18.113880
v -18.451799 0.378868 8.908481
v -18.451799 0.378868 27.319281
v -27.455296 0.378868 18.113880
v -9.448302 0.882294 18.113880
v -18.451799 0.378868 -27.913118
v -18.451799 0.643329 -9.502318
v -27.455296 0.378868 -18.707718
v -9.448302 0.643329 -18.707718
v 17.562189 0.378868 -27.913118
v 17.562189 0.965857 -9.502318
v 8.558692 0.378868 -18.707718
v 26.565685 0.378868 -18.707718
v 26.565685 0.378868 -9.502318
v 8.558692 1.561833 -9.502318
v 8.558692 0.378868 -27.913118
v -9.448302 1.965634 -9.502318
v -27.455296 0.378868 -9.502318
v -27.455296 0.378868 -27.913118
v -9.448302 0.378868 27.319281
v -27.455296 0.378868 27.319281
v -27.455296 0.378868 8.908481
v 26.565685 0.378868 27.319281
v 8.558692 1.297372 27.319281
v 8.558692 9.080018 8.908481
v 26.565685 1.297372 8.908481
v -9.448302 1.561833 8.908481
v -9.448302 0.378868 -27.913118
v 26.565685 0.378868 -27.913118
v -44.907021 12.608794 47.762062
v 48.965893 15.868834 47.762062
v -44.907021 22.801683 -48.215950
v 48.965893 12.608794 -48.215950
v -45.950054 14.776566 -0.226946
v 2.029434 12.608794 48.828484
v 44.386250 18.451660 -0.226946
v 2.029434 14.831049 -49.282375
v -45.950054 10.434866 25.367189
v 27.062210 12.608794 48.828484
v 50.008930 12.608794 -25.821081
v -23.003344 14.856950 -49.282375
v -52.940697 17.465599 -25.821081
v -23.003344 10.319722 55.755360
v 50.008930 12.608794 25.367189
v 27.062210 12.608794 -49.282375
v -45.950054 12.608794 38.164261
v 38.573502 14.893476 49.153511
v 50.008930 12.608794 -38.618149
v -35.519730 18.348459 -55.134243
v -45.950054 12.608794 -13.024014
v -10.486955 14.722404 55.755360
v 53.510132 15.619338 12.570122
v 14.545822 12.608794 -49.282375
v -45.950054 12.608794 12.570122
v 14.545822 12.608794 48.828484
v 53.510132 15.619338 -13.024014
v -10.486955 17.491493 -49.282375
v -45.950054 16.931261 -38.618149
v -35.519730 14.722404 55.755360
v 51.565308 12.608794 38.164261
v 39.578602 16.183847 -49.282375
vt 0.8750 0.8750
vt 1.0000 1.0000
vt 0.8750 1.0000
vt 0.5000 0.8750
vt 0.3750 1.0000
vt 0.3750 0.8750
vt 0.3750 0.3750
vt 0.5000 0.5000
vt 0.3750 0.5000
vt 1.0000 0.3750
vt 0.8750 0.5000
vt 0.8750 0.3750
vt 0.7500 0.3750
vt 0.6250 0.5000
vt 0.6250 0.3750
vt 0.6250 0.1250
vt 0.7500 0.2500
vt 0.6250 0.2500
vt 0.8750 0.1250
vt 1.0000 0.2500
vt 0.8750 0.2500
vt 0.2500 0.3750
vt 0.1250 0.5000
vt 0.1250 0.3750
vt 0.2500 0.1250
vt 0.1250 0.2500
vt 0.1250 0.1250
vt 0.5000 0.1250
vt 0.3750 0.2500
vt 0.3750 0.1250
vt 0.2500 0.8750
vt 0.1250 1.0000
vt 0.1250 0.8750
vt 0.1250 0.6250
vt 0.2500 0.7500
vt 0.1250 0.7500
vt 0.3750 0.6250
vt 0.5000 0.7500
vt 0.3750 0.7500
vt 0.7500 0.8750
vt 0.6250 1.0000
vt 0.6250 0.8750
vt 0.7500 0.6250
vt 0.6250 0.7500
vt 0.6250 0.6250
vt 1.0000 0.6250
vt 0.8750 0.7500
vt 0.8750 0.6250
vt 0.7500 0.7500
vt 0.7500 0.5000
vt 1.0000 0.5000
vt 0.5000 0.6250
vt 0.5000 1.0000
vt 0.2500 0.6250
vt 0.2500 0.5000
vt 0.0000 0.7500
vt 0.0000 0.6250
vt 0.0000 0.5000
vt 0.0000 1.0000
vt 0.0000 0.8750
vt 0.2500 0.2500
vt 0.3750 0.0000
vt 0.2500 0.0000
vt 0.5000 0.0000
vt 0.0000 0.2500
vt 0.0000 0.1250
vt 0.0000 0.0000
vt 0.1250 0.0000
vt 0.0000 0.3750
vt 0.7500 0.1250
vt 0.7500 0.0000
vt 1.0000 0.0000
vt 0.8750 0.0000
vt 0.5000 0.2500
vt 0.6250 0.0000
vt 0.5000 0.3750
vt 0.2500 1.0000
vt 0.7500 1.0000
vt 1.0000 0.7500
vt 0.0000 0.5000
vt 0.0000 0.3750
vt 0.0000 0.2500
vt 0.5000 0.0000
vt 0.6250 0.0000
vt 0.7500 0.0000
vt 0.0000 0.1250
vt 0.0000 0.0000
vt 1.0000 0.5000
vt 1.0000 0.6250
vt 1.0000 0.7500
vt 0.8750 0.0000
vt 1.0000 0.0000
vt 0.5000 1.0000
vt 0.3750 1.0000
vt 0.2500 1.0000
vt 1.0000 0.8750
vt 1.0000 0.8750
vt 1.0000 1.0000
vt 0.0000 0.8750
vt 0.0000 0.7500
vt 0.1250 1.0000
vt 0.0000 1.0000
vt 0.1250 0.0000
vt 0.2500 0.0000
vt 0.0000 0.6250
vt 1.0000 0.1250
vt 1.0000 0.1250
vt 1.0000 0.2500
vt 0.3750 0.0000
vt 0.8750 1.0000
vt 0.7500 1.0000
vt 1.0000 0.3750
vt 0.6250 1.0000
vn 0.0000 1.0000 0.0000
vn -0.3163 0.9451 0.0817
vn 0.1214 0.9920 -0.0357
vn 0.2357 0.9372 -0.2572
vn 0.0802 0.8584 0.5067
vn 0.1209 0.9878 0.0986
vn -0.0557 0.9970 0.0545
vn 0.0000 0.9898 -0.1422
vn 0.0655 0.9897 -0.1272
vn 0.0649 0.9959 -0.0635
vn 0.3488 0.8729 -0.3412
vn 0.0778 0.9949 -0.0634
vn 0.0866 0.9794 -0.1824
vn 0.0837 0.9470 -0.3100
vn 0.1907 0.8630 -0.4679
vn 0.0293 0.9992 -0.0287
vn -0.0293 0.9992 -0.0287
vn -0.1453 0.9894 0.0000
vn -0.0435 0.9981 -0.0425
vn -0.0294 0.9996 0.0000
vn 0.4152 0.8140 0.4061
vn 0.1008 0.9879 0.1183
vn -0.0433 0.9389 0.3414
vn 0.0000 0.9979 0.0655
vn 0.0000 0.9929 0.1189
vn -0.1292 0.9846 -0.1175
vn -0.2607 0.9380 0.2283
vn 0.2368 0.9414 0.2402
vn 0.5115 0.8347 -0.2041
vn 0.5206 0.8495 0.0854
vn 0.1215 0.9926 0.0000
vn -0.1302 0.9911 0.0285
vn -0.0558 0.9984 0.0000
vn -0.3476 0.9351 0.0690
vn 0.0000 0.9996 -0.0287
vn 0.7554 0.6461 0.1094
vn 0.7115 0.6928 0.1177
vn 0.0000 0.7493 -0.6622
vn 0.6817 0.7213 -0.1225
vn 0.7067 0.7033 -0.0768
vn -0.5761 0.6088 -0.5455
vn -0.6136 0.7894 -0.0178
vn -0.1295 0.7453 -0.6540
vn -0.1573 0.7352 -0.6594
vn 0.1327 0.6243 0.7698
vn -0.1384 0.6574 0.7408
vn -0.6087 0.7934 0.0000
vn -0.5805 0.8118 0.0631
vn 0.8029 0.5896 0.0873
vn 0.6888 0.7249 0.0000
vn -0.1312 0.7023 0.6997
vn 0.6402 0.5955 0.4853
vn 0.0626 0.8324 -0.5507
vn 0.0000 0.9020 -0.4318
vn 0.7438 0.6685 0.0000
vn 0.7948 0.6068 0.0000
vn -0.5469 0.8351 -0.0594
vn 0.0000 0.8228 -0.5683
vn -0.0817 0.6903 0.7189
vn 0.0000 0.7460 0.6660
vn -0.6169 0.7870 0.0000
vn -0.8684 0.4958 0.0000
vn 0.0000 0.6879 0.7258
vn -0.4760 0.8732 -0.1042
vn 0.0780 0.9970 0.0000
vn 0.2099 0.9497 -0.2323
vn 0.0000 0.8948 0.4464
vn -0.0293 0.9992 0.0287
vn -0.3298 0.8872 0.3226
vn -0.0428 0.9822 -0.1829
vn 0.0000 0.9980 -0.0636
vn 0.0291 0.9914 -0.1274
vn -0.1146 0.8733 -0.4735
vn 0.0615 0.9296 -0.3633
vn -0.1439 0.9795 -0.1407
vn -0.1869 0.9815 -0.0418
vn -0.3031 0.9057 -0.2965
vn -0.0557 0.9963 0.0654
vn 0.1010 0.9900 0.0988
vn -0.2327 0.8375 0.4944
vn -0.0457 0.9919 0.1188
vn -0.2693 0.9287 -0.2549
vn -0.2705 0.9329 0.2380
vn 0.0926 0.9907 0.0996
vn 0.3709 0.9281 -0.0334
vn 0.4544 0.8908 0.0000
vn -0.1864 0.9788 0.0846
vn -0.1299 0.9888 0.0730
vn -0.4681 0.8586 0.2090
vn 0.6750 0.7378 0.0000
vn -0.0773 0.7283 -0.6808
vn 0.0000 0.6249 0.7807
vn 0.6855 0.5856 0.4327
vn 0.6687 0.6624 0.3376
vn 0.0000 0.6873 0.7264
vn 0.0747 0.7493 0.6579
vn 0.2635 0.8102 -0.5236
vn 0.2941 0.8360 -0.4633
vn 0.7088 0.6945 -0.1236
vn 0.7548 0.6468 -0.1096
vn -0.4514 0.8005 -0.3942
vn -0.6014 0.7956 0.0731
vn -0.2939 0.8355 -0.4644
vn -0.1768 0.8057 -0.5654
vn 0.1549 0.6329 0.7586
vn -0.2094 0.7332 0.6470
vn -0.6137 0.7893 0.0178
vn -0.5781 0.6061 0.5463
vn 0.1264 0.7119 0.6908
s off
f 81/1/1 4/2/1 45/3/1
f 34/4/1 41/5/1 80/6/1
f 79/7/2 9/8/2 48/9/2
f 32/10/3 49/11/3 78/12/3
f 50/13/4 37/14/4 77/15/4
f 76/16/5 22/17/5 52/18/5
f 75/19/6 16/20/6 53/21/6
f 54/22/1 36/23/1 74/24/1
f 55/25/1 56/26/1 73/27/1
f 47/28/7 57/29/7 72/30/7
f 58/31/1 29/32/1 71/33/1
f 70/34/1 24/35/1 60/36/1
f 69/37/8 18/38/8 61/39/8
f 62/40/1 33/41/1 68/42/1
f 63/43/9 64/44/9 67/45/9
f 40/46/1 65/47/1 66/48/1
f 66/48/10 25/49/10 63/43/10
f 49/11/11 63/43/11 21/50/11
f 7/51/12 66/48/12 49/11/12
f 67/45/13 18/38/13 46/52/13
f 9/8/14 67/45/14 46/52/14
f 21/50/15 67/45/15 37/14/15
f 68/42/1 8/53/1 34/4/1
f 64/44/16 34/4/16 18/38/16
f 25/49/1 68/42/1 64/44/1
f 59/54/17 61/39/17 24/35/17
f 20/55/18 69/37/18 59/54/18
f 48/9/19 46/52/19 69/37/19
f 70/34/1 14/56/1 30/57/1
f 36/23/1 30/57/1 5/58/1
f 20/55/20 70/34/20 36/23/20
f 71/33/1 3/59/1 42/60/1
f 60/36/1 42/60/1 14/56/1
f 24/35/1 71/33/1 60/36/1
f 72/30/1 23/61/1 55/25/1
f 31/62/1 55/25/1 15/63/1
f 6/64/1 72/30/1 31/62/1
f 73/27/1 10/65/1 26/66/1
f 1/67/1 73/27/1 26/66/1
f 15/63/1 73/27/1 43/68/1
f 74/24/1 5/58/1 38/69/1
f 56/26/1 38/69/1 10/65/1
f 23/61/1 74/24/1 56/26/1
f 51/70/21 53/21/21 22/17/21
f 11/71/22 75/19/22 51/70/22
f 2/72/1 75/19/1 27/73/1
f 76/16/23 19/74/23 47/28/23
f 39/75/24 47/28/24 6/64/24
f 11/71/25 76/16/25 39/75/25
f 35/76/26 37/14/26 9/8/26
f 52/18/27 35/76/27 19/74/27
f 52/18/28 50/13/28 77/15/28
f 78/12/29 21/50/29 50/13/29
f 22/17/30 78/12/30 50/13/30
f 16/20/31 78/12/31 53/21/31
f 79/7/32 20/55/32 54/22/32
f 57/29/33 54/22/33 23/61/33
f 19/74/34 79/7/34 57/29/34
f 80/6/1 13/77/1 58/31/1
f 24/35/1 80/6/1 58/31/1
f 18/38/35 80/6/35 61/39/35
f 81/1/1 17/78/1 62/40/1
f 65/47/1 62/40/1 25/49/1
f 12/79/1 81/1/1 65/47/1
f 38/69/36 86/80/36 106/81/36
f 10/65/37 106/81/37 90/82/37
f 39/75/38 87/83/38 107/84/38
f 11/71/38 107/84/38 91/85/38
f 26/66/39 90/82/39 98/86/39
f 1/67/40 98/86/40 82/87/40
f 40/46/41 88/88/41 108/89/41
f 12/79/42 108/89/42 92/90/42
f 27/73/43 91/85/43 99/91/43
f 2/72/44 99/91/44 83/92/44
f 41/5/45 89/93/45 109/94/45
f 13/77/46 109/94/46 93/95/46
f 28/96/47 92/90/47 100/97/47
f 4/2/48 100/97/48 85/98/48
f 3/59/49 110/99/49 42/60/49
f 42/60/50 94/100/50 14/56/50
f 29/32/51 93/95/51 101/101/51
f 3/59/52 101/101/52 84/102/52
f 1/67/53 111/103/53 43/68/53
f 43/68/54 95/104/54 15/63/54
f 14/56/55 102/105/55 30/57/55
f 30/57/56 86/80/56 5/58/56
f 2/72/57 112/106/57 44/107/57
f 44/107/47 96/108/47 16/20/47
f 15/63/58 103/109/58 31/62/58
f 31/62/38 87/83/38 6/64/38
f 4/2/59 113/110/59 45/3/59
f 45/3/60 97/111/60 17/78/60
f 16/20/61 104/112/61 32/10/61
f 32/10/62 88/88/62 7/51/62
f 17/78/60 105/113/60 33/41/60
f 33/41/63 89/93/63 8/53/63
f 81/1/1 28/96/1 4/2/1
f 34/4/1 8/53/1 41/5/1
f 79/7/64 35/76/64 9/8/64
f 32/10/65 7/51/65 49/11/65
f 50/13/66 21/50/66 37/14/66
f 76/16/67 51/70/67 22/17/67
f 75/19/1 44/107/1 16/20/1
f 54/22/68 20/55/68 36/23/68
f 55/25/1 23/61/1 56/26/1
f 47/28/69 19/74/69 57/29/69
f 58/31/1 13/77/1 29/32/1
f 70/34/17 59/54/17 24/35/17
f 69/37/70 46/52/70 18/38/70
f 62/40/1 17/78/1 33/41/1
f 63/43/71 25/49/71 64/44/71
f 40/46/1 12/79/1 65/47/1
f 66/48/1 65/47/1 25/49/1
f 49/11/10 66/48/10 63/43/10
f 7/51/1 40/46/1 66/48/1
f 67/45/72 64/44/72 18/38/72
f 9/8/73 37/14/73 67/45/73
f 21/50/74 63/43/74 67/45/74
f 68/42/1 33/41/1 8/53/1
f 64/44/1 68/42/1 34/4/1
f 25/49/1 62/40/1 68/42/1
f 59/54/75 69/37/75 61/39/75
f 20/55/76 48/9/76 69/37/76
f 48/9/77 9/8/77 46/52/77
f 70/34/1 60/36/1 14/56/1
f 36/23/1 70/34/1 30/57/1
f 20/55/20 59/54/20 70/34/20
f 71/33/1 29/32/1 3/59/1
f 60/36/1 71/33/1 42/60/1
f 24/35/1 58/31/1 71/33/1
f 72/30/7 57/29/7 23/61/7
f 31/62/1 72/30/1 55/25/1
f 6/64/78 47/28/78 72/30/78
f 73/27/1 56/26/1 10/65/1
f 1/67/1 43/68/1 73/27/1
f 15/63/1 55/25/1 73/27/1
f 74/24/1 36/23/1 5/58/1
f 56/26/1 74/24/1 38/69/1
f 23/61/1 54/22/1 74/24/1
f 51/70/79 75/19/79 53/21/79
f 11/71/1 27/73/1 75/19/1
f 2/72/1 44/107/1 75/19/1
f 76/16/80 52/18/80 19/74/80
f 39/75/81 76/16/81 47/28/81
f 11/71/25 51/70/25 76/16/25
f 35/76/82 77/15/82 37/14/82
f 52/18/83 77/15/83 35/76/83
f 52/18/84 22/17/84 50/13/84
f 78/12/85 49/11/85 21/50/85
f 22/17/86 53/21/86 78/12/86
f 16/20/31 32/10/31 78/12/31
f 79/7/87 48/9/87 20/55/87
f 57/29/88 79/7/88 54/22/88
f 19/74/89 35/76/89 79/7/89
f 80/6/1 41/5/1 13/77/1
f 24/35/17 61/39/17 80/6/17
f 18/38/35 34/4/35 80/6/35
f 81/1/1 45/3/1 17/78/1
f 65/47/1 81/1/1 62/40/1
f 12/79/1 28/96/1 81/1/1
f 38/69/56 5/58/56 86/80/56
f 10/65/55 38/69/55 106/81/55
f 39/75/38 6/64/38 87/83/38
f 11/71/38 39/75/38 107/84/38
f 26/66/90 10/65/90 90/82/90
f 1/67/40 26/66/40 98/86/40
f 40/46/62 7/51/62 88/88/62
f 12/79/61 40/46/61 108/89/61
f 27/73/38 11/71/38 91/85/38
f 2/72/91 27/73/91 99/91/91
f 41/5/63 8/53/63 89/93/63
f 13/77/92 41/5/92 109/94/92
f 28/96/47 12/79/47 92/90/47
f 4/2/48 28/96/48 100/97/48
f 3/59/93 84/102/93 110/99/93
f 42/60/94 110/99/94 94/100/94
f 29/32/95 13/77/95 93/95/95
f 3/59/96 29/32/96 101/101/96
f 1/67/97 82/87/97 111/103/97
f 43/68/98 111/103/98 95/104/98
f 14/56/99 94/100/99 102/105/99
f 30/57/100 102/105/100 86/80/100
f 2/72/101 83/92/101 112/106/101
f 44/107/102 112/106/102 96/108/102
f 15/63/103 95/104/103 103/109/103
f 31/62/104 103/109/104 87/83/104
f 4/2/105 85/98/105 113/110/105
f 45/3/106 113/110/106 97/111/106
f 16/20/107 96/108/107 104/112/107
f 32/10/108 104/112/108 88/88/108
f 17/78/60 97/111/60 105/113/60
f 33/41/109 105/113/109 89/93/109
