# Blender v2.78 (sub 0) OBJ File: 'post.blend'
# www.blender.org
o Plane
v -0.674255 0.000000 3.018851
v 1.386063 0.000000 3.018851
v -0.674255 0.000000 -3.018851
v 1.386063 0.000000 -3.018851
v -0.674255 0.000000 0.000000
v -0.212941 0.000000 3.018851
v 1.386063 0.000000 0.000000
v -0.212941 0.000000 -3.018851
v -0.212941 0.000000 0.000000
v -0.674255 0.000000 1.509425
v 0.586561 0.000000 3.018851
v 1.386063 0.000000 -1.509425
v -0.285369 0.000000 -3.018851
v -0.674255 0.000000 -1.509425
v -0.285369 0.000000 3.018851
v 1.386063 0.000000 1.509425
v 0.586561 0.000000 -3.018851
v -0.212941 0.000000 -1.509425
v -0.212941 0.000000 1.509425
v -0.285369 0.000000 0.000000
v 0.586561 0.000000 0.000000
v 0.586561 0.000000 1.509425
v -0.285369 0.000000 1.509425
v -0.285369 0.000000 -1.509425
v 0.586561 0.000000 -1.509425
v -0.674255 0.861193 1.509425
v -0.674255 0.861193 3.018851
v -0.285369 0.861193 -3.018851
v -0.674255 0.861193 -3.018851
v -0.674255 0.861193 -1.509425
v -0.674255 0.861193 0.000000
v -0.285369 0.861193 0.000000
v -0.285369 0.861193 3.018851
v -0.285369 0.861193 1.509425
v -0.285369 0.861193 -1.509425
v 0.986312 0.000000 3.018851
v 1.386063 0.000000 -2.264138
v 1.386063 0.000000 0.754713
v 0.186810 0.000000 -3.018851
v -0.212941 0.000000 -2.264138
v -0.212941 0.000000 0.754713
v 0.186810 0.000000 0.000000
v 0.186810 0.000000 3.018851
v 1.386063 0.000000 -0.754713
v 1.386063 0.000000 2.264138
v 0.986312 0.000000 -3.018851
v -0.212941 0.000000 -0.754713
v -0.212941 0.000000 2.264138
v 0.986312 0.000000 0.000000
v 0.586561 0.000000 0.754713
v 0.586561 0.000000 2.264138
v 0.186810 0.000000 1.509425
v 0.986312 0.000000 1.509425
v 0.586561 0.000000 -2.264138
v 0.586561 0.000000 -0.754713
v 0.186810 0.000000 -1.509425
v 0.986312 0.000000 -1.509425
v 0.986312 0.000000 -0.754713
v 0.186810 0.000000 -0.754713
v 0.186810 0.000000 -2.264138
v 0.986312 0.000000 2.264138
v 0.186810 0.000000 2.264138
v 0.186810 0.000000 0.754713
v 0.986312 0.000000 0.754713
v 0.986312 0.000000 -2.264138
v 1.186188 0.000000 3.018851
v 1.386063 0.000000 -2.641495
v 1.386063 0.000000 0.377356
v -0.013065 0.000000 -3.018851
v -0.212941 0.000000 -2.641495
v -0.212941 0.000000 0.377356
v -0.013065 0.000000 0.000000
v 0.386686 0.000000 3.018851
v 1.386063 0.000000 -1.132069
v 1.386063 0.000000 1.886782
v 0.786437 0.000000 -3.018851
v -0.212941 0.000000 -1.132069
v -0.212941 0.000000 1.886782
v 0.786437 0.000000 0.000000
v 0.586561 0.000000 0.377356
v 0.586561 0.000000 1.886782
v -0.013065 0.000000 1.509425
v 0.786437 0.000000 1.509425
v 0.586561 0.000000 -2.641495
v 0.586561 0.000000 -1.132069
v -0.013065 0.000000 -1.509425
v 0.786437 0.000000 -1.509425
v 0.786437 0.000000 3.018851
v 1.386063 0.000000 -1.886782
v 1.386063 0.000000 1.132069
v 0.386686 0.000000 -3.018851
v -0.212941 0.000000 -1.886782
v -0.212941 0.000000 1.132069
v 0.386686 0.000000 0.000000
v -0.013065 0.000000 3.018851
v 1.386063 0.000000 -0.377356
v 1.386063 0.000000 2.641495
v 1.186188 0.000000 -3.018851
v -0.212941 0.000000 -0.377356
v -0.212941 0.000000 2.641495
v 1.186188 0.000000 0.000000
v 0.586561 0.000000 1.132069
v 0.586561 0.000000 2.641495
v 0.386686 0.000000 1.509425
v 1.186188 0.000000 1.509425
v 0.586561 0.000000 -1.886782
v 0.586561 0.000000 -0.377356
v 0.386686 0.000000 -1.509425
v 1.186188 0.000000 -1.509425
v 0.986312 0.000000 -1.132069
v 0.986312 0.000000 -0.377356
v 0.786437 0.000000 -0.754713
v 1.186188 0.000000 -0.754713
v 0.186810 0.000000 -1.132069
v 0.186810 0.000000 -0.377356
v -0.013065 0.000000 -0.754713
v 0.386686 0.000000 -0.754713
v 0.186810 0.000000 -2.641495
v 0.186810 0.000000 -1.886782
v -0.013065 0.000000 -2.264138
v 0.386686 0.000000 -2.264138
v 0.986312 0.000000 1.886782
v 0.986312 0.000000 2.641495
v 0.786437 0.000000 2.264138
v 1.186188 0.000000 2.264138
v 0.186810 0.000000 1.886782
v 0.186810 0.000000 2.641495
v -0.013065 0.000000 2.264138
v 0.386686 0.000000 2.264138
v 0.186810 0.000000 0.377356
v 0.186810 0.000000 1.132069
v -0.013065 0.000000 0.754713
v 0.386686 0.000000 0.754713
v 0.986312 0.000000 0.377356
v 0.986312 0.000000 1.132069
v 0.786437 0.000000 0.754713
v 1.186188 0.000000 0.754713
v 0.986312 0.000000 -2.641495
v 0.986312 0.000000 -1.886782
v 0.786437 0.000000 -2.264138
v 1.186188 0.000000 -2.264138
v 1.186188 0.000000 -1.886782
v 0.786437 0.000000 -1.886782
v 0.786437 0.000000 -2.641495
v 1.186188 0.000000 1.132069
v 0.786437 0.000000 1.132069
v 0.786437 0.000000 0.377356
v 0.386686 0.000000 1.132069
v -0.013065 0.000000 1.132069
v -0.013065 0.000000 0.377356
v 0.386686 0.000000 2.641495
v -0.013065 0.000000 2.641495
v -0.013065 0.000000 1.886782
v 1.186188 0.000000 2.641495
v 0.786437 0.000000 2.641495
v 0.786437 0.000000 1.886782
v 0.386686 0.000000 -1.886782
v -0.013065 0.000000 -1.886782
v -0.013065 0.000000 -2.641495
v 0.386686 0.000000 -0.377356
v -0.013065 0.000000 -0.377356
v -0.013065 0.000000 -1.132069
v 1.186188 0.000000 -0.377356
v 0.786437 0.000000 -0.377356
v 0.786437 0.000000 -1.132069
v 1.186188 0.000000 -1.132069
v 0.386686 0.000000 -1.132069
v 0.386686 0.000000 -2.641495
v 1.186188 0.000000 1.886782
v 0.386686 0.000000 1.886782
v 0.386686 0.000000 0.377356
v 1.186188 0.000000 0.377356
v 1.186188 0.000000 -2.641495
vt 1.0000 0.0000
vt 0.0000 1.0000
vt 0.0000 0.0000
vt 0.7169 0.0495
vt 0.2831 0.0495
vt 0.1091 0.8117
vt 0.9875 0.3887
vt 0.7169 0.0495
vt 0.5000 1.0000
vt 1.0000 0.0000
vt 0.0000 1.0000
vt 0.0000 0.0000
vt 1.0000 0.0000
vt 0.0000 1.0000
vt 0.0000 0.0000
vt 1.0000 0.0000
vt 0.0000 1.0000
vt 0.0000 0.0000
vt 1.0000 0.0000
vt 0.0000 1.0000
vt 0.0000 0.0000
vt 1.0000 0.0000
vt 0.0000 1.0000
vt 0.0000 0.0000
vt 1.0000 0.0000
vt 0.0000 1.0000
vt 0.0000 0.0000
vt 0.7169 0.0495
vt 0.2831 0.0495
vt 0.1091 0.8117
vt 1.0000 0.0000
vt 0.0000 1.0000
vt 0.0000 0.0000
vt 1.0000 0.0000
vt 0.0000 1.0000
vt 0.0000 0.0000
vt 0.7169 0.0495
vt 0.2831 0.0495
vt 0.1091 0.8117
vt 1.0000 0.0000
vt 0.0000 1.0000
vt 0.0000 0.0000
vt 1.0000 0.0000
vt 0.0000 1.0000
vt 0.0000 0.0000
vt 1.0000 0.0000
vt 0.0000 1.0000
vt 0.0000 0.0000
vt 1.0000 0.0000
vt 0.0000 1.0000
vt 0.0000 0.0000
vt 1.0000 0.0000
vt 0.0000 0.0000
vt 1.0000 0.0000
vt 0.0000 1.0000
vt 0.0000 0.0000
vt 1.0000 0.0000
vt 0.0000 0.0000
vt 1.0000 0.0000
vt 0.0000 1.0000
vt 0.0000 0.0000
vt 1.0000 0.0000
vt 0.0000 1.0000
vt 0.0000 0.0000
vt 1.0000 0.0000
vt 0.0000 0.0000
vt 1.0000 0.0000
vt 0.0000 1.0000
vt 0.0000 0.0000
vt 1.0000 0.0000
vt 0.0000 0.0000
vt 1.0000 0.0000
vt 0.0000 1.0000
vt 0.0000 0.0000
vt 1.0000 0.0000
vt 0.0000 1.0000
vt 0.0000 0.0000
vt 1.0000 0.0000
vt 0.0000 1.0000
vt 0.0000 0.0000
vt 1.0000 0.0000
vt 0.0000 1.0000
vt 0.0000 0.0000
vt 1.0000 0.0000
vt 0.0000 1.0000
vt 0.0000 0.0000
vt 1.0000 0.0000
vt 0.0000 1.0000
vt 0.0000 0.0000
vt 1.0000 0.0000
vt 0.0000 1.0000
vt 0.0000 0.0000
vt 1.0000 0.0000
vt 0.0000 1.0000
vt 0.0000 0.0000
vt 1.0000 0.0000
vt 0.0000 1.0000
vt 0.0000 0.0000
vt 1.0000 0.0000
vt 0.0000 1.0000
vt 0.0000 0.0000
vt 1.0000 0.0000
vt 0.0000 1.0000
vt 0.0000 0.0000
vt 1.0000 0.0000
vt 0.0000 1.0000
vt 0.0000 0.0000
vt 1.0000 0.0000
vt 0.0000 1.0000
vt 0.0000 0.0000
vt 1.0000 0.0000
vt 0.0000 1.0000
vt 0.0000 0.0000
vt 1.0000 0.0000
vt 0.0000 1.0000
vt 0.0000 0.0000
vt 1.0000 0.0000
vt 0.0000 1.0000
vt 0.0000 0.0000
vt 1.0000 0.0000
vt 0.0000 1.0000
vt 0.0000 0.0000
vt 1.0000 0.0000
vt 0.0000 1.0000
vt 0.0000 0.0000
vt 1.0000 0.0000
vt 0.0000 1.0000
vt 0.0000 0.0000
vt 1.0000 0.0000
vt 0.0000 1.0000
vt 0.0000 0.0000
vt 1.0000 0.0000
vt 0.0000 1.0000
vt 0.0000 0.0000
vt 1.0000 0.0000
vt 0.0000 1.0000
vt 0.0000 0.0000
vt 1.0000 0.0000
vt 0.0000 1.0000
vt 0.0000 0.0000
vt 1.0000 0.0000
vt 0.0000 1.0000
vt 0.0000 0.0000
vt 1.0000 0.0000
vt 0.0000 1.0000
vt 0.0000 0.0000
vt 1.0000 0.0000
vt 0.0000 1.0000
vt 0.0000 0.0000
vt 1.0000 0.0000
vt 0.0000 1.0000
vt 0.0000 0.0000
vt 1.0000 0.0000
vt 0.0000 1.0000
vt 0.0000 0.0000
vt 1.0000 0.0000
vt 0.0000 1.0000
vt 0.0000 0.0000
vt 1.0000 0.0000
vt 0.0000 1.0000
vt 0.0000 0.0000
vt 1.0000 0.0000
vt 0.0000 1.0000
vt 0.0000 0.0000
vt 1.0000 0.0000
vt 0.0000 1.0000
vt 0.0000 0.0000
vt 1.0000 0.0000
vt 0.0000 1.0000
vt 0.0000 0.0000
vt 1.0000 0.0000
vt 0.0000 1.0000
vt 0.0000 0.0000
vt 1.0000 0.0000
vt 0.0000 1.0000
vt 0.0000 0.0000
vt 1.0000 0.0000
vt 0.0000 1.0000
vt 0.0000 0.0000
vt 1.0000 0.0000
vt 0.0000 1.0000
vt 0.0000 0.0000
vt 1.0000 0.0000
vt 0.0000 1.0000
vt 0.0000 0.0000
vt 1.0000 0.0000
vt 0.0000 1.0000
vt 0.0000 0.0000
vt 1.0000 0.0000
vt 0.0000 1.0000
vt 0.0000 0.0000
vt 1.0000 0.0000
vt 0.0000 1.0000
vt 0.0000 0.0000
vt 1.0000 0.0000
vt 0.0000 1.0000
vt 0.0000 0.0000
vt 1.0000 0.0000
vt 0.0000 1.0000
vt 0.0000 0.0000
vt 1.0000 0.0000
vt 0.0000 1.0000
vt 0.0000 0.0000
vt 1.0000 0.0000
vt 0.0000 1.0000
vt 0.0000 0.0000
vt 1.0000 0.0000
vt 0.0000 1.0000
vt 0.0000 0.0000
vt 1.0000 0.0000
vt 0.0000 1.0000
vt 0.0000 0.0000
vt 1.0000 0.0000
vt 0.0000 1.0000
vt 0.0000 0.0000
vt 1.0000 0.0000
vt 0.0000 1.0000
vt 0.0000 0.0000
vt 1.0000 0.0000
vt 0.0000 1.0000
vt 0.0000 0.0000
vt 1.0000 0.0000
vt 0.0000 1.0000
vt 0.0000 0.0000
vt 1.0000 0.0000
vt 0.0000 1.0000
vt 0.0000 0.0000
vt 1.0000 0.0000
vt 0.0000 1.0000
vt 0.0000 0.0000
vt 1.0000 0.0000
vt 0.0000 1.0000
vt 0.0000 0.0000
vt 1.0000 0.0000
vt 0.0000 1.0000
vt 0.0000 0.0000
vt 1.0000 0.0000
vt 0.0000 1.0000
vt 0.0000 0.0000
vt 1.0000 0.0000
vt 0.0000 1.0000
vt 0.0000 0.0000
vt 1.0000 0.0000
vt 0.0000 1.0000
vt 0.0000 0.0000
vt 1.0000 0.0000
vt 0.0000 1.0000
vt 0.0000 0.0000
vt 1.0000 0.0000
vt 0.0000 1.0000
vt 0.0000 0.0000
vt 1.0000 0.0000
vt 0.0000 1.0000
vt 0.0000 0.0000
vt 1.0000 0.0000
vt 0.0000 1.0000
vt 0.0000 0.0000
vt 1.0000 0.0000
vt 0.0000 1.0000
vt 0.0000 0.0000
vt 1.0000 0.0000
vt 0.0000 1.0000
vt 0.0000 0.0000
vt 1.0000 0.0000
vt 0.0000 1.0000
vt 0.0000 0.0000
vt 1.0000 0.0000
vt 0.0000 1.0000
vt 0.0000 0.0000
vt 1.0000 0.0000
vt 0.0000 1.0000
vt 0.0000 0.0000
vt 1.0000 0.0000
vt 0.0000 1.0000
vt 0.0000 0.0000
vt 1.0000 0.0000
vt 0.0000 1.0000
vt 0.0000 0.0000
vt 1.0000 0.0000
vt 0.0000 1.0000
vt 0.0000 0.0000
vt 1.0000 0.0000
vt 0.0000 1.0000
vt 0.0000 0.0000
vt 1.0000 0.0000
vt 0.0000 1.0000
vt 0.0000 0.0000
vt 1.0000 0.0000
vt 0.0000 1.0000
vt 0.0000 0.0000
vt 1.0000 0.0000
vt 0.0000 1.0000
vt 0.0000 0.0000
vt 1.0000 0.0000
vt 0.0000 1.0000
vt 0.0000 0.0000
vt 1.0000 0.0000
vt 0.0000 1.0000
vt 0.0000 0.0000
vt 1.0000 0.0000
vt 0.0000 1.0000
vt 0.0000 0.0000
vt 1.0000 0.0000
vt 0.0000 1.0000
vt 0.0000 0.0000
vt 1.0000 0.0000
vt 0.0000 1.0000
vt 0.0000 0.0000
vt 1.0000 0.0000
vt 0.0000 1.0000
vt 0.0000 0.0000
vt 1.0000 0.0000
vt 0.0000 1.0000
vt 0.0000 0.0000
vt 1.0000 0.0000
vt 0.0000 1.0000
vt 0.0000 0.0000
vt 1.0000 0.0000
vt 0.0000 1.0000
vt 0.0000 0.0000
vt 1.0000 0.0000
vt 0.0000 1.0000
vt 0.0000 0.0000
vt 1.0000 0.0000
vt 0.0000 1.0000
vt 0.0000 0.0000
vt 1.0000 0.0000
vt 0.0000 1.0000
vt 0.0000 0.0000
vt 1.0000 0.0000
vt 0.0000 1.0000
vt 0.0000 0.0000
vt 1.0000 0.0000
vt 0.0000 1.0000
vt 0.0000 0.0000
vt 1.0000 0.0000
vt 0.0000 1.0000
vt 0.0000 0.0000
vt 1.0000 0.0000
vt 0.0000 1.0000
vt 0.0000 0.0000
vt 1.0000 0.0000
vt 0.0000 1.0000
vt 0.0000 0.0000
vt 1.0000 0.0000
vt 0.0000 1.0000
vt 0.0000 0.0000
vt 1.0000 0.0000
vt 0.0000 1.0000
vt 0.0000 0.0000
vt 1.0000 0.0000
vt 0.0000 1.0000
vt 0.0000 0.0000
vt 1.0000 0.0000
vt 0.0000 1.0000
vt 0.0000 0.0000
vt 1.0000 0.0000
vt 0.0000 1.0000
vt 0.0000 0.0000
vt 1.0000 0.0000
vt 0.0000 1.0000
vt 0.0000 0.0000
vt 1.0000 0.0000
vt 0.0000 1.0000
vt 0.0000 0.0000
vt 1.0000 0.0000
vt 0.0000 1.0000
vt 0.0000 0.0000
vt 1.0000 0.0000
vt 0.0000 1.0000
vt 0.0000 0.0000
vt 1.0000 0.0000
vt 0.0000 1.0000
vt 0.0000 0.0000
vt 1.0000 0.0000
vt 0.0000 1.0000
vt 0.0000 0.0000
vt 1.0000 0.0000
vt 0.0000 1.0000
vt 0.0000 0.0000
vt 1.0000 0.0000
vt 0.0000 1.0000
vt 0.0000 0.0000
vt 1.0000 0.0000
vt 0.0000 1.0000
vt 0.0000 0.0000
vt 1.0000 0.0000
vt 0.0000 1.0000
vt 0.0000 0.0000
vt 1.0000 0.0000
vt 0.0000 1.0000
vt 0.0000 0.0000
vt 1.0000 0.0000
vt 0.0000 1.0000
vt 0.0000 0.0000
vt 1.0000 0.0000
vt 0.0000 1.0000
vt 0.0000 0.0000
vt 1.0000 0.0000
vt 0.0000 1.0000
vt 0.0000 0.0000
vt 1.0000 0.0000
vt 0.0000 1.0000
vt 0.0000 0.0000
vt 1.0000 0.0000
vt 0.0000 1.0000
vt 0.0000 0.0000
vt 1.0000 0.0000
vt 0.0000 1.0000
vt 0.0000 0.0000
vt 1.0000 0.0000
vt 0.0000 1.0000
vt 0.0000 0.0000
vt 1.0000 0.0000
vt 0.0000 1.0000
vt 0.0000 0.0000
vt 1.0000 0.0000
vt 0.0000 1.0000
vt 0.0000 0.0000
vt 1.0000 0.0000
vt 0.0000 1.0000
vt 0.0000 0.0000
vt 1.0000 0.0000
vt 0.0000 1.0000
vt 0.0000 0.0000
vt 1.0000 0.0000
vt 0.0000 1.0000
vt 0.0000 0.0000
vt 1.0000 0.0000
vt 0.0000 1.0000
vt 0.0000 0.0000
vt 1.0000 0.0000
vt 0.0000 1.0000
vt 0.0000 0.0000
vt 1.0000 1.0000
vt 0.5000 1.0000
vt 0.8909 0.8117
vt 0.9875 0.3887
vt 0.0125 0.3887
vt 0.1091 0.8117
vt 0.8909 0.8117
vt 0.0125 0.3887
vt 0.2831 0.0495
vt 1.0000 1.0000
vt 1.0000 1.0000
vt 1.0000 1.0000
vt 1.0000 1.0000
vt 1.0000 1.0000
vt 1.0000 1.0000
vt 0.5000 1.0000
vt 0.8909 0.8117
vt 0.9875 0.3887
vt 0.0125 0.3887
vt 1.0000 1.0000
vt 1.0000 1.0000
vt 0.5000 1.0000
vt 0.9875 0.3887
vt 0.8909 0.8117
vt 0.0125 0.3887
vt 1.0000 1.0000
vt 1.0000 1.0000
vt 1.0000 1.0000
vt 1.0000 1.0000
vt 1.0000 1.0000
vt 1.0000 1.0000
vt 1.0000 1.0000
vt 1.0000 1.0000
vt 1.0000 1.0000
vt 1.0000 1.0000
vt 1.0000 1.0000
vt 1.0000 1.0000
vt 1.0000 1.0000
vt 1.0000 1.0000
vt 1.0000 1.0000
vt 1.0000 1.0000
vt 1.0000 1.0000
vt 1.0000 1.0000
vt 1.0000 1.0000
vt 1.0000 1.0000
vt 1.0000 1.0000
vt 1.0000 1.0000
vt 1.0000 1.0000
vt 1.0000 1.0000
vt 1.0000 1.0000
vt 1.0000 1.0000
vt 1.0000 1.0000
vt 1.0000 1.0000
vt 1.0000 1.0000
vt 1.0000 1.0000
vt 1.0000 1.0000
vt 1.0000 1.0000
vt 1.0000 1.0000
vt 1.0000 1.0000
vt 1.0000 1.0000
vt 1.0000 1.0000
vt 1.0000 1.0000
vt 1.0000 1.0000
vt 1.0000 1.0000
vt 1.0000 1.0000
vt 1.0000 1.0000
vt 1.0000 1.0000
vt 1.0000 1.0000
vt 1.0000 1.0000
vt 1.0000 1.0000
vt 1.0000 1.0000
vt 1.0000 1.0000
vt 1.0000 1.0000
vt 1.0000 1.0000
vt 1.0000 1.0000
vt 1.0000 1.0000
vt 1.0000 1.0000
vt 1.0000 1.0000
vt 1.0000 1.0000
vt 1.0000 1.0000
vt 1.0000 1.0000
vt 1.0000 1.0000
vt 1.0000 1.0000
vt 1.0000 1.0000
vt 1.0000 1.0000
vt 1.0000 1.0000
vt 1.0000 1.0000
vt 1.0000 1.0000
vt 1.0000 1.0000
vt 1.0000 1.0000
vt 1.0000 1.0000
vt 1.0000 1.0000
vt 1.0000 1.0000
vt 1.0000 1.0000
vt 1.0000 1.0000
vt 1.0000 1.0000
vt 1.0000 1.0000
vt 1.0000 1.0000
vt 1.0000 1.0000
vt 1.0000 1.0000
vt 1.0000 1.0000
vt 1.0000 1.0000
vt 1.0000 1.0000
vt 1.0000 1.0000
vt 1.0000 1.0000
vt 1.0000 1.0000
vt 1.0000 1.0000
vt 1.0000 1.0000
vt 1.0000 1.0000
vt 1.0000 1.0000
vt 1.0000 1.0000
vt 1.0000 1.0000
vt 1.0000 1.0000
vt 1.0000 1.0000
vt 1.0000 1.0000
vt 1.0000 1.0000
vt 1.0000 1.0000
vt 1.0000 1.0000
vt 1.0000 1.0000
vt 1.0000 1.0000
vt 1.0000 1.0000
vt 1.0000 1.0000
vt 1.0000 1.0000
vt 1.0000 1.0000
vt 1.0000 1.0000
vt 1.0000 1.0000
vt 1.0000 1.0000
vt 1.0000 1.0000
vt 1.0000 1.0000
vt 1.0000 1.0000
vt 1.0000 1.0000
vt 1.0000 1.0000
vt 1.0000 1.0000
vt 1.0000 1.0000
vt 1.0000 1.0000
vt 1.0000 1.0000
vt 1.0000 1.0000
vt 1.0000 1.0000
vt 1.0000 1.0000
vt 1.0000 1.0000
vt 1.0000 1.0000
vt 1.0000 1.0000
vt 1.0000 1.0000
vt 1.0000 1.0000
vt 1.0000 1.0000
vt 1.0000 1.0000
vt 1.0000 1.0000
vt 1.0000 1.0000
vt 1.0000 1.0000
vt 1.0000 1.0000
vt 1.0000 1.0000
vt 1.0000 1.0000
vt 1.0000 1.0000
vt 1.0000 1.0000
vn 0.0000 1.0000 0.0000
vn 1.0000 0.0000 0.0000
vn -1.0000 0.0000 0.0000
vn 0.0000 0.0000 1.0000
vn 0.0000 0.0000 -1.0000
s off
f 67/1/1 98/2/1 173/3/1
f 40/4/1 70/5/1 13/6/1
f 93/7/1 41/8/1 23/9/1
f 68/10/1 101/11/1 172/12/1
f 80/13/1 94/14/1 171/15/1
f 81/16/1 104/17/1 170/18/1
f 75/19/1 105/20/1 169/21/1
f 20/22/2 34/23/2 23/24/2
f 5/25/3 30/26/3 14/27/3
f 48/28/1 78/29/1 23/30/1
f 15/31/4 27/32/4 1/33/4
f 1/34/3 26/35/3 10/36/3
f 47/37/1 77/38/1 24/39/1
f 84/40/1 91/41/1 168/42/1
f 85/43/1 108/44/1 167/45/1
f 74/46/1 109/47/1 166/48/1
f 34/49/1 31/50/1 26/51/1
f 33/52/1 26/35/1 27/53/1
f 35/54/1 29/55/1 30/56/1
f 32/57/1 30/26/1 31/58/1
f 13/59/2 35/60/2 24/61/2
f 23/62/2 33/63/2 15/64/2
f 10/65/3 31/50/3 5/66/3
f 24/67/2 32/68/2 20/69/2
f 14/70/3 29/55/3 3/71/3
f 3/72/5 28/73/5 13/74/5
f 110/75/1 87/76/1 165/77/1
f 111/78/1 112/79/1 164/80/1
f 96/81/1 113/82/1 163/83/1
f 114/84/1 86/85/1 162/86/1
f 115/87/1 116/88/1 161/89/1
f 107/90/1 117/91/1 160/92/1
f 118/93/1 69/94/1 159/95/1
f 119/96/1 120/97/1 158/98/1
f 106/99/1 121/100/1 157/101/1
f 122/102/1 83/103/1 156/104/1
f 123/105/1 124/106/1 155/107/1
f 97/108/1 125/109/1 154/110/1
f 126/111/1 82/112/1 153/113/1
f 127/114/1 128/115/1 152/116/1
f 103/117/1 129/118/1 151/119/1
f 130/120/1 72/121/1 150/122/1
f 131/123/1 132/124/1 149/125/1
f 102/126/1 133/127/1 148/128/1
f 134/129/1 79/130/1 147/131/1
f 135/132/1 136/133/1 146/134/1
f 90/135/1 137/136/1 145/137/1
f 138/138/1 76/139/1 144/140/1
f 139/141/1 140/142/1 143/143/1
f 89/144/1 141/145/1 142/146/1
f 142/147/1 65/148/1 139/149/1
f 109/150/1 139/151/1 57/152/1
f 12/153/1 142/154/1 109/155/1
f 143/156/1 54/157/1 106/158/1
f 87/159/1 106/160/1 25/161/1
f 57/162/1 143/163/1 87/164/1
f 144/165/1 17/166/1 84/167/1
f 140/168/1 84/169/1 54/170/1
f 65/171/1 144/172/1 140/173/1
f 145/174/1 64/175/1 135/176/1
f 105/177/1 135/178/1 53/179/1
f 16/180/1 145/181/1 105/182/1
f 146/183/1 50/184/1 102/185/1
f 83/186/1 102/187/1 22/188/1
f 53/189/1 146/190/1 83/191/1
f 147/192/1 21/193/1 80/194/1
f 136/195/1 80/196/1 50/197/1
f 64/198/1 147/199/1 136/200/1
f 148/201/1 63/202/1 131/203/1
f 104/204/1 131/205/1 52/206/1
f 22/207/1 148/208/1 104/209/1
f 149/210/1 41/211/1 93/212/1
f 82/213/1 93/214/1 19/215/1
f 52/216/1 149/217/1 82/218/1
f 150/219/1 9/220/1 71/221/1
f 132/222/1 71/223/1 41/224/1
f 63/225/1 150/226/1 132/227/1
f 151/228/1 62/229/1 127/230/1
f 73/231/1 127/232/1 43/233/1
f 11/234/1 151/235/1 73/236/1
f 152/237/1 48/238/1 100/239/1
f 95/240/1 100/241/1 6/242/1
f 43/243/1 152/244/1 95/245/1
f 153/246/1 19/247/1 78/248/1
f 128/249/1 78/250/1 48/251/1
f 62/252/1 153/253/1 128/254/1
f 154/255/1 61/256/1 123/257/1
f 66/258/1 123/259/1 36/260/1
f 2/261/1 154/262/1 66/263/1
f 155/264/1 51/265/1 103/266/1
f 88/267/1 103/268/1 11/269/1
f 36/270/1 155/271/1 88/272/1
f 156/273/1 22/274/1 81/275/1
f 124/276/1 81/277/1 51/278/1
f 61/279/1 156/280/1 124/281/1
f 157/282/1 60/283/1 119/284/1
f 108/285/1 119/286/1 56/287/1
f 25/288/1 157/289/1 108/290/1
f 158/291/1 40/292/1 92/293/1
f 86/294/1 92/295/1 18/296/1
f 56/297/1 158/298/1 86/299/1
f 159/300/1 8/301/1 70/302/1
f 120/303/1 70/304/1 40/305/1
f 60/306/1 159/307/1 120/308/1
f 160/309/1 59/310/1 115/311/1
f 94/312/1 115/313/1 42/314/1
f 21/315/1 160/316/1 94/317/1
f 161/318/1 47/319/1 99/320/1
f 72/321/1 99/322/1 9/323/1
f 42/324/1 161/325/1 72/326/1
f 162/327/1 18/328/1 77/329/1
f 116/330/1 77/331/1 47/332/1
f 59/333/1 162/334/1 116/335/1
f 163/336/1 58/337/1 111/338/1
f 101/339/1 111/340/1 49/341/1
f 7/342/1 163/343/1 101/344/1
f 164/345/1 55/346/1 107/347/1
f 79/348/1 107/349/1 21/350/1
f 49/351/1 164/352/1 79/353/1
f 165/354/1 25/355/1 85/356/1
f 112/357/1 85/358/1 55/359/1
f 58/360/1 165/361/1 112/362/1
f 166/363/1 57/364/1 110/365/1
f 113/366/1 110/367/1 58/368/1
f 44/369/1 166/370/1 113/371/1
f 167/372/1 56/373/1 114/374/1
f 117/375/1 114/376/1 59/377/1
f 55/378/1 167/379/1 117/380/1
f 168/381/1 39/382/1 118/383/1
f 121/384/1 118/385/1 60/386/1
f 54/387/1 168/388/1 121/389/1
f 169/390/1 53/391/1 122/392/1
f 125/393/1 122/394/1 61/395/1
f 45/396/1 169/397/1 125/398/1
f 170/399/1 52/400/1 126/401/1
f 129/402/1 126/403/1 62/404/1
f 51/405/1 170/406/1 129/407/1
f 171/408/1 42/409/1 130/410/1
f 133/411/1 130/412/1 63/413/1
f 50/414/1 171/415/1 133/416/1
f 172/417/1 49/418/1 134/419/1
f 137/420/1 134/421/1 64/422/1
f 38/423/1 172/424/1 137/425/1
f 173/426/1 46/427/1 138/428/1
f 141/429/1 138/430/1 65/431/1
f 37/432/1 173/433/1 141/434/1
f 67/1/1 4/435/1 98/2/1
f 13/6/1 24/436/1 40/4/1
f 24/436/1 18/437/1 92/438/1
f 70/5/1 8/439/1 13/6/1
f 24/436/1 92/438/1 40/4/1
f 20/440/1 23/9/1 41/8/1
f 19/441/1 93/7/1 23/9/1
f 9/442/1 20/440/1 71/443/1
f 41/8/1 71/443/1 20/440/1
f 68/10/1 7/444/1 101/11/1
f 80/13/1 21/445/1 94/14/1
f 81/16/1 22/446/1 104/17/1
f 75/19/1 16/447/1 105/20/1
f 20/22/2 32/448/2 34/23/2
f 5/25/3 31/449/3 30/26/3
f 23/30/1 15/450/1 48/28/1
f 6/451/1 100/452/1 15/450/1
f 78/29/1 19/453/1 23/30/1
f 15/450/1 100/452/1 48/28/1
f 15/31/4 33/454/4 27/32/4
f 1/34/3 27/455/3 26/35/3
f 24/39/1 20/456/1 47/37/1
f 99/457/1 47/37/1 20/456/1
f 20/456/1 9/458/1 99/457/1
f 77/38/1 18/459/1 24/39/1
f 84/40/1 17/460/1 91/41/1
f 85/43/1 25/461/1 108/44/1
f 74/46/1 12/462/1 109/47/1
f 34/49/1 32/448/1 31/50/1
f 33/52/1 34/463/1 26/35/1
f 35/54/1 28/464/1 29/55/1
f 32/57/1 35/465/1 30/26/1
f 13/59/2 28/464/2 35/60/2
f 23/62/2 34/463/2 33/63/2
f 10/65/3 26/466/3 31/50/3
f 24/67/2 35/465/2 32/68/2
f 14/70/3 30/467/3 29/55/3
f 3/72/5 29/468/5 28/73/5
f 110/75/1 57/469/1 87/76/1
f 111/78/1 58/470/1 112/79/1
f 96/81/1 44/471/1 113/82/1
f 114/84/1 56/472/1 86/85/1
f 115/87/1 59/473/1 116/88/1
f 107/90/1 55/474/1 117/91/1
f 118/93/1 39/475/1 69/94/1
f 119/96/1 60/476/1 120/97/1
f 106/99/1 54/477/1 121/100/1
f 122/102/1 53/478/1 83/103/1
f 123/105/1 61/479/1 124/106/1
f 97/108/1 45/480/1 125/109/1
f 126/111/1 52/481/1 82/112/1
f 127/114/1 62/482/1 128/115/1
f 103/117/1 51/483/1 129/118/1
f 130/120/1 42/484/1 72/121/1
f 131/123/1 63/485/1 132/124/1
f 102/126/1 50/486/1 133/127/1
f 134/129/1 49/487/1 79/130/1
f 135/132/1 64/488/1 136/133/1
f 90/135/1 38/489/1 137/136/1
f 138/138/1 46/490/1 76/139/1
f 139/141/1 65/491/1 140/142/1
f 89/144/1 37/492/1 141/145/1
f 142/147/1 141/493/1 65/148/1
f 109/150/1 142/494/1 139/151/1
f 12/153/1 89/495/1 142/154/1
f 143/156/1 140/496/1 54/157/1
f 87/159/1 143/497/1 106/160/1
f 57/162/1 139/498/1 143/163/1
f 144/165/1 76/499/1 17/166/1
f 140/168/1 144/500/1 84/169/1
f 65/171/1 138/501/1 144/172/1
f 145/174/1 137/502/1 64/175/1
f 105/177/1 145/503/1 135/178/1
f 16/180/1 90/504/1 145/181/1
f 146/183/1 136/505/1 50/184/1
f 83/186/1 146/506/1 102/187/1
f 53/189/1 135/507/1 146/190/1
f 147/192/1 79/508/1 21/193/1
f 136/195/1 147/509/1 80/196/1
f 64/198/1 134/510/1 147/199/1
f 148/201/1 133/511/1 63/202/1
f 104/204/1 148/512/1 131/205/1
f 22/207/1 102/513/1 148/208/1
f 149/210/1 132/514/1 41/211/1
f 82/213/1 149/515/1 93/214/1
f 52/216/1 131/516/1 149/217/1
f 150/219/1 72/517/1 9/220/1
f 132/222/1 150/518/1 71/223/1
f 63/225/1 130/519/1 150/226/1
f 151/228/1 129/520/1 62/229/1
f 73/231/1 151/521/1 127/232/1
f 11/234/1 103/522/1 151/235/1
f 152/237/1 128/523/1 48/238/1
f 95/240/1 152/524/1 100/241/1
f 43/243/1 127/525/1 152/244/1
f 153/246/1 82/526/1 19/247/1
f 128/249/1 153/527/1 78/250/1
f 62/252/1 126/528/1 153/253/1
f 154/255/1 125/529/1 61/256/1
f 66/258/1 154/530/1 123/259/1
f 2/261/1 97/531/1 154/262/1
f 155/264/1 124/532/1 51/265/1
f 88/267/1 155/533/1 103/268/1
f 36/270/1 123/534/1 155/271/1
f 156/273/1 83/535/1 22/274/1
f 124/276/1 156/536/1 81/277/1
f 61/279/1 122/537/1 156/280/1
f 157/282/1 121/538/1 60/283/1
f 108/285/1 157/539/1 119/286/1
f 25/288/1 106/540/1 157/289/1
f 158/291/1 120/541/1 40/292/1
f 86/294/1 158/542/1 92/295/1
f 56/297/1 119/543/1 158/298/1
f 159/300/1 69/544/1 8/301/1
f 120/303/1 159/545/1 70/304/1
f 60/306/1 118/546/1 159/307/1
f 160/309/1 117/547/1 59/310/1
f 94/312/1 160/548/1 115/313/1
f 21/315/1 107/549/1 160/316/1
f 161/318/1 116/550/1 47/319/1
f 72/321/1 161/551/1 99/322/1
f 42/324/1 115/552/1 161/325/1
f 162/327/1 86/553/1 18/328/1
f 116/330/1 162/554/1 77/331/1
f 59/333/1 114/555/1 162/334/1
f 163/336/1 113/556/1 58/337/1
f 101/339/1 163/557/1 111/340/1
f 7/342/1 96/558/1 163/343/1
f 164/345/1 112/559/1 55/346/1
f 79/348/1 164/560/1 107/349/1
f 49/351/1 111/561/1 164/352/1
f 165/354/1 87/562/1 25/355/1
f 112/357/1 165/563/1 85/358/1
f 58/360/1 110/564/1 165/361/1
f 166/363/1 109/565/1 57/364/1
f 113/366/1 166/566/1 110/367/1
f 44/369/1 74/567/1 166/370/1
f 167/372/1 108/568/1 56/373/1
f 117/375/1 167/569/1 114/376/1
f 55/378/1 85/570/1 167/379/1
f 168/381/1 91/571/1 39/382/1
f 121/384/1 168/572/1 118/385/1
f 54/387/1 84/573/1 168/388/1
f 169/390/1 105/574/1 53/391/1
f 125/393/1 169/575/1 122/394/1
f 45/396/1 75/576/1 169/397/1
f 170/399/1 104/577/1 52/400/1
f 129/402/1 170/578/1 126/403/1
f 51/405/1 81/579/1 170/406/1
f 171/408/1 94/580/1 42/409/1
f 133/411/1 171/581/1 130/412/1
f 50/414/1 80/582/1 171/415/1
f 172/417/1 101/583/1 49/418/1
f 137/420/1 172/584/1 134/421/1
f 38/423/1 68/585/1 172/424/1
f 173/426/1 98/586/1 46/427/1
f 141/429/1 173/587/1 138/430/1
f 37/432/1 67/588/1 173/433/1
