<svg version="1.1" xmlns="http://www.w3.org/2000/svg" xmlns:xlink="http://www.w3.org/1999/xlink" width="1051" height="595"><defs/><g><g transform="translate(-70,-6) scale(1,1)"><rect fill="#C0C0C0" stroke="none" x="551" y="23" width="169.0625" height="167" opacity="0.2"/></g><g transform="translate(-70,-6) scale(1,1)"><rect fill="#ffffff" stroke="none" x="544" y="16" width="169.0625" height="167"/></g><g transform="translate(-70,-6) scale(1,1)"><path fill="none" stroke="#000000" d="M 544 16 L 713.0625 16 L 713.0625 183 L 544 183 L 544 16 Z Z" stroke-miterlimit="10"/></g><g transform="translate(-70,-6) scale(1,1)"><path fill="none" stroke="#000000" d="M 544 41 L 713.0625 41" stroke-miterlimit="10"/></g><g transform="translate(-70,-6) scale(1,1)"><path fill="none" stroke="#000000" d="M 544 139 L 713.0625 139" stroke-miterlimit="10"/></g><g transform="translate(-70,-6) scale(1,1)"><g><path fill="none" stroke="none"/><text fill="#000000" stroke="none" font-family="Arial" font-size="13px" font-style="normal" font-weight="bold" text-decoration="none" x="610.100830078125" y="35.5">Scene</text></g></g><g transform="translate(-70,-6) scale(1,1)"><g><path fill="none" stroke="none"/><text fill="#000000" stroke="none" font-family="Arial" font-size="13px" font-style="normal" font-weight="normal" text-decoration="none" x="549" y="58.5">+Models: list&lt;Model&gt;</text></g></g><g transform="translate(-70,-6) scale(1,1)"><g><path fill="none" stroke="none"/><text fill="#000000" stroke="none" font-family="Arial" font-size="13px" font-style="normal" font-weight="normal" text-decoration="none" x="549" y="73.5">+bullteWorld: BulletWorld</text></g></g><g transform="translate(-70,-6) scale(1,1)"><g><path fill="none" stroke="none"/><text fill="#000000" stroke="none" font-family="Arial" font-size="13px" font-style="normal" font-weight="normal" text-decoration="none" x="549" y="88.5">+huds: list&lt;Hud&gt;</text></g></g><g transform="translate(-70,-6) scale(1,1)"><g><path fill="none" stroke="none"/><text fill="#000000" stroke="none" font-family="Arial" font-size="13px" font-style="normal" font-weight="normal" text-decoration="none" x="549" y="103.5">+wind: Wind</text></g></g><g transform="translate(-70,-6) scale(1,1)"><g><path fill="none" stroke="none"/><text fill="#000000" stroke="none" font-family="Arial" font-size="13px" font-style="normal" font-weight="normal" text-decoration="none" x="549" y="118.5">+background: Sound</text></g></g><g transform="translate(-70,-6) scale(1,1)"><g><path fill="none" stroke="none"/><text fill="#000000" stroke="none" font-family="Arial" font-size="13px" font-style="normal" font-weight="normal" text-decoration="none" x="549" y="133.5">+lights: list&lt;directionLights&gt;</text></g></g><g transform="translate(-70,-6) scale(1,1)"><g><path fill="none" stroke="none"/><text fill="#000000" stroke="none" font-family="Arial" font-size="13px" font-style="normal" font-weight="normal" text-decoration="none" x="549" y="156.5">+drawAllModels()</text></g></g><g transform="translate(-70,-6) scale(1,1)"><g><path fill="none" stroke="none"/><text fill="#000000" stroke="none" font-family="Arial" font-size="13px" font-style="normal" font-weight="normal" text-decoration="none" x="549" y="171.5">+calculate()</text></g></g><g transform="translate(-70,-6) scale(1,1)"><rect fill="#C0C0C0" stroke="none" x="423" y="247" width="137.99072265625" height="130" opacity="0.2"/></g><g transform="translate(-70,-6) scale(1,1)"><rect fill="#ffffff" stroke="none" x="416" y="240" width="137.99072265625" height="130"/></g><g transform="translate(-70,-6) scale(1,1)"><path fill="none" stroke="#000000" d="M 416 240 L 553.99072265625 240 L 553.99072265625 370 L 416 370 L 416 240 Z Z" stroke-miterlimit="10"/></g><g transform="translate(-70,-6) scale(1,1)"><path fill="none" stroke="#000000" d="M 416 265 L 553.99072265625 265" stroke-miterlimit="10"/></g><g transform="translate(-70,-6) scale(1,1)"><path fill="none" stroke="#000000" d="M 416 348 L 553.99072265625 348" stroke-miterlimit="10"/></g><g transform="translate(-70,-6) scale(1,1)"><g><path fill="none" stroke="none"/><text fill="#000000" stroke="none" font-family="Arial" font-size="13px" font-style="normal" font-weight="bold" text-decoration="none" x="467.291748046875" y="259.5">Model</text></g></g><g transform="translate(-70,-6) scale(1,1)"><g><path fill="none" stroke="none"/><text fill="#000000" stroke="none" font-family="Arial" font-size="13px" font-style="normal" font-weight="normal" text-decoration="none" x="421" y="282.5">+vertexBuffer: GLuint</text></g></g><g transform="translate(-70,-6) scale(1,1)"><g><path fill="none" stroke="none"/><text fill="#000000" stroke="none" font-family="Arial" font-size="13px" font-style="normal" font-weight="normal" text-decoration="none" x="421" y="297.5">+indexBuffer: GLuint</text></g></g><g transform="translate(-70,-6) scale(1,1)"><g><path fill="none" stroke="none"/><text fill="#000000" stroke="none" font-family="Arial" font-size="13px" font-style="normal" font-weight="normal" text-decoration="none" x="421" y="312.5">+animation: Animation</text></g></g><g transform="translate(-70,-6) scale(1,1)"><g><path fill="none" stroke="none"/><text fill="#000000" stroke="none" font-family="Arial" font-size="13px" font-style="normal" font-weight="normal" text-decoration="none" x="421" y="327.5">+sound: Sound</text></g></g><g transform="translate(-70,-6) scale(1,1)"><g><path fill="none" stroke="none"/><text fill="#000000" stroke="none" font-family="Arial" font-size="13px" font-style="normal" font-weight="normal" text-decoration="none" x="421" y="342.5">+texture: GLuint</text></g></g><g transform="translate(-70,-6) scale(1,1)"><g><path fill="none" stroke="none"/><text fill="#000000" stroke="none" font-family="Arial" font-size="13px" font-style="normal" font-weight="normal" text-decoration="none" x="421" y="365.5">+draw()</text></g></g><g transform="translate(-70,-6) scale(1,1)"><rect fill="#C0C0C0" stroke="none" x="111" y="143" width="183" height="57" opacity="0.2"/></g><g transform="translate(-70,-6) scale(1,1)"><rect fill="#ffffff" stroke="none" x="104" y="136" width="183" height="57"/></g><g transform="translate(-70,-6) scale(1,1)"><path fill="none" stroke="#000000" d="M 104 136 L 287 136 L 287 193 L 104 193 L 104 136 Z Z" stroke-miterlimit="10"/></g><g transform="translate(-70,-6) scale(1,1)"><path fill="none" stroke="#000000" d="M 104 161 L 287 161" stroke-miterlimit="10"/></g><g transform="translate(-70,-6) scale(1,1)"><path fill="none" stroke="#000000" d="M 104 184 L 287 184" stroke-miterlimit="10"/></g><g transform="translate(-70,-6) scale(1,1)"><g><path fill="none" stroke="none"/><text fill="#000000" stroke="none" font-family="Arial" font-size="13px" font-style="normal" font-weight="bold" text-decoration="none" x="176.70458984375" y="155.5">Sound</text></g></g><g transform="translate(-70,-6) scale(1,1)"><g><path fill="none" stroke="none"/><text fill="#000000" stroke="none" font-family="Arial" font-size="13px" font-style="normal" font-weight="normal" text-decoration="none" x="109" y="178.5">+engine: ISoundEngine</text></g></g><g transform="translate(-70,-6) scale(1,1)"><rect fill="#C0C0C0" stroke="none" x="87" y="263" width="247" height="117" opacity="0.2"/></g><g transform="translate(-70,-6) scale(1,1)"><rect fill="#ffffff" stroke="none" x="80" y="256" width="247" height="117"/></g><g transform="translate(-70,-6) scale(1,1)"><path fill="none" stroke="#000000" d="M 80 256 L 327 256 L 327 373 L 80 373 L 80 256 Z Z" stroke-miterlimit="10"/></g><g transform="translate(-70,-6) scale(1,1)"><path fill="none" stroke="#000000" d="M 80 281 L 327 281" stroke-miterlimit="10"/></g><g transform="translate(-70,-6) scale(1,1)"><path fill="none" stroke="#000000" d="M 80 364 L 327 364" stroke-miterlimit="10"/></g><g transform="translate(-70,-6) scale(1,1)"><g><path fill="none" stroke="none"/><text fill="#000000" stroke="none" font-family="Arial" font-size="13px" font-style="normal" font-weight="bold" text-decoration="none" x="174.595947265625" y="275.5">Animation</text></g></g><g transform="translate(-70,-6) scale(1,1)"><g><path fill="none" stroke="none"/><text fill="#000000" stroke="none" font-family="Arial" font-size="13px" font-style="normal" font-weight="normal" text-decoration="none" x="85" y="298.5">+bones: list&lt;bone&gt;</text></g></g><g transform="translate(-70,-6) scale(1,1)"><g><path fill="none" stroke="none"/><text fill="#000000" stroke="none" font-family="Arial" font-size="13px" font-style="normal" font-weight="normal" text-decoration="none" x="85" y="313.5">+boneMap: dictionary&lt;bName bIndex&gt;</text></g></g><g transform="translate(-70,-6) scale(1,1)"><g><path fill="none" stroke="none"/><text fill="#000000" stroke="none" font-family="Arial" font-size="13px" font-style="normal" font-weight="normal" text-decoration="none" x="85" y="328.5">+importer: Assimp Importer</text></g></g><g transform="translate(-70,-6) scale(1,1)"><g><path fill="none" stroke="none"/><text fill="#000000" stroke="none" font-family="Arial" font-size="13px" font-style="normal" font-weight="normal" text-decoration="none" x="85" y="343.5">+nodes: array&lt;aiNode&gt;</text></g></g><g transform="translate(-70,-6) scale(1,1)"><g><path fill="none" stroke="none"/><text fill="#000000" stroke="none" font-family="Arial" font-size="13px" font-style="normal" font-weight="normal" text-decoration="none" x="85" y="358.5">+animations: array&lt;aiAnimation&gt;</text></g></g><g transform="translate(-70,-6) scale(1,1)"><rect fill="#C0C0C0" stroke="none" x="439" y="527" width="135" height="57" opacity="0.2"/></g><g transform="translate(-70,-6) scale(1,1)"><rect fill="#ffffff" stroke="none" x="432" y="520" width="135" height="57"/></g><g transform="translate(-70,-6) scale(1,1)"><path fill="none" stroke="#000000" d="M 432 520 L 567 520 L 567 577 L 432 577 L 432 520 Z Z" stroke-miterlimit="10"/></g><g transform="translate(-70,-6) scale(1,1)"><path fill="none" stroke="#000000" d="M 432 545 L 567 545" stroke-miterlimit="10"/></g><g transform="translate(-70,-6) scale(1,1)"><path fill="none" stroke="#000000" d="M 432 568 L 567 568" stroke-miterlimit="10"/></g><g transform="translate(-70,-6) scale(1,1)"><g><path fill="none" stroke="none"/><text fill="#000000" stroke="none" font-family="Arial" font-size="13px" font-style="normal" font-weight="bold" text-decoration="none" x="475.2900390625" y="539.5">Weapon</text></g></g><g transform="translate(-70,-6) scale(1,1)"><g><path fill="none" stroke="none"/><text fill="#000000" stroke="none" font-family="Arial" font-size="13px" font-style="normal" font-weight="normal" text-decoration="none" x="437" y="562.5">+projectil: Projectil</text></g></g><g transform="translate(-70,-6) scale(1,1)"><rect fill="#C0C0C0" stroke="none" x="607" y="527" width="135" height="71" opacity="0.2"/></g><g transform="translate(-70,-6) scale(1,1)"><rect fill="#ffffff" stroke="none" x="600" y="520" width="135" height="71"/></g><g transform="translate(-70,-6) scale(1,1)"><path fill="none" stroke="#000000" d="M 600 520 L 735 520 L 735 591 L 600 591 L 600 520 Z Z" stroke-miterlimit="10"/></g><g transform="translate(-70,-6) scale(1,1)"><path fill="none" stroke="#000000" d="M 600 545 L 735 545" stroke-miterlimit="10"/></g><g transform="translate(-70,-6) scale(1,1)"><path fill="none" stroke="#000000" d="M 600 555 L 735 555" stroke-miterlimit="10"/></g><g transform="translate(-70,-6) scale(1,1)"><g><path fill="none" stroke="none"/><text fill="#000000" stroke="none" font-family="Arial" font-size="13px" font-style="normal" font-weight="bold" text-decoration="none" x="644.3818359375" y="539.5">Projectil</text></g></g><g transform="translate(-70,-6) scale(1,1)"><g><path fill="none" stroke="none"/><text fill="#000000" stroke="none" font-family="Arial" font-size="13px" font-style="normal" font-weight="normal" text-decoration="none" x="605" y="572.5">+inTarget()</text></g></g><g transform="translate(-70,-6) scale(1,1)"><rect fill="#C0C0C0" stroke="none" x="287" y="527" width="117.7734375" height="57" opacity="0.2"/></g><g transform="translate(-70,-6) scale(1,1)"><rect fill="#ffffff" stroke="none" x="280" y="520" width="117.7734375" height="57"/></g><g transform="translate(-70,-6) scale(1,1)"><path fill="none" stroke="#000000" d="M 280 520 L 397.7734375 520 L 397.7734375 577 L 280 577 L 280 520 Z Z" stroke-miterlimit="10"/></g><g transform="translate(-70,-6) scale(1,1)"><path fill="none" stroke="#000000" d="M 280 545 L 397.7734375 545" stroke-miterlimit="10"/></g><g transform="translate(-70,-6) scale(1,1)"><path fill="none" stroke="#000000" d="M 280 568 L 397.7734375 568" stroke-miterlimit="10"/></g><g transform="translate(-70,-6) scale(1,1)"><g><path fill="none" stroke="none"/><text fill="#000000" stroke="none" font-family="Arial" font-size="13px" font-style="normal" font-weight="bold" text-decoration="none" x="320.462646484375" y="539.5">Player</text></g></g><g transform="translate(-70,-6) scale(1,1)"><g><path fill="none" stroke="none"/><text fill="#000000" stroke="none" font-family="Arial" font-size="13px" font-style="normal" font-weight="normal" text-decoration="none" x="285" y="562.5">+weapon: Weapon</text></g></g><g transform="translate(-70,-6) scale(1,1)"><rect fill="#C0C0C0" stroke="none" x="631" y="343" width="167" height="72" opacity="0.2"/></g><g transform="translate(-70,-6) scale(1,1)"><rect fill="#ffffff" stroke="none" x="624" y="336" width="167" height="72"/></g><g transform="translate(-70,-6) scale(1,1)"><path fill="none" stroke="#000000" d="M 624 336 L 791 336 L 791 408 L 624 408 L 624 336 Z Z" stroke-miterlimit="10"/></g><g transform="translate(-70,-6) scale(1,1)"><path fill="none" stroke="#000000" d="M 624 361 L 791 361" stroke-miterlimit="10"/></g><g transform="translate(-70,-6) scale(1,1)"><path fill="none" stroke="#000000" d="M 624 399 L 791 399" stroke-miterlimit="10"/></g><g transform="translate(-70,-6) scale(1,1)"><g><path fill="none" stroke="none"/><text fill="#000000" stroke="none" font-family="Arial" font-size="13px" font-style="normal" font-weight="bold" text-decoration="none" x="694.1318359375" y="355.5">wind</text></g></g><g transform="translate(-70,-6) scale(1,1)"><g><path fill="none" stroke="none"/><text fill="#000000" stroke="none" font-family="Arial" font-size="13px" font-style="normal" font-weight="normal" text-decoration="none" x="629" y="378.5">+strength: double</text></g></g><g transform="translate(-70,-6) scale(1,1)"><g><path fill="none" stroke="none"/><text fill="#000000" stroke="none" font-family="Arial" font-size="13px" font-style="normal" font-weight="normal" text-decoration="none" x="629" y="393.5">+direction: glm vec3</text></g></g><g transform="translate(-70,-6) scale(1,1)"><rect fill="#C0C0C0" stroke="none" x="879" y="167" width="239" height="72" opacity="0.2"/></g><g transform="translate(-70,-6) scale(1,1)"><rect fill="#ffffff" stroke="none" x="872" y="160" width="239" height="72"/></g><g transform="translate(-70,-6) scale(1,1)"><path fill="none" stroke="#000000" d="M 872 160 L 1111 160 L 1111 232 L 872 232 L 872 160 Z Z" stroke-miterlimit="10"/></g><g transform="translate(-70,-6) scale(1,1)"><path fill="none" stroke="#000000" d="M 872 185 L 1111 185" stroke-miterlimit="10"/></g><g transform="translate(-70,-6) scale(1,1)"><path fill="none" stroke="#000000" d="M 872 223 L 1111 223" stroke-miterlimit="10"/></g><g transform="translate(-70,-6) scale(1,1)"><g><path fill="none" stroke="none"/><text fill="#000000" stroke="none" font-family="Arial" font-size="13px" font-style="normal" font-weight="bold" text-decoration="none" x="979.575927734375" y="179.5">Hud</text></g></g><g transform="translate(-70,-6) scale(1,1)"><g><path fill="none" stroke="none"/><text fill="#000000" stroke="none" font-family="Arial" font-size="13px" font-style="normal" font-weight="normal" text-decoration="none" x="877" y="202.5">+position: glm vec3</text></g></g><g transform="translate(-70,-6) scale(1,1)"><g><path fill="none" stroke="none"/><text fill="#000000" stroke="none" font-family="Arial" font-size="13px" font-style="normal" font-weight="normal" text-decoration="none" x="877" y="217.5">+texture: GLuint</text></g></g><g transform="translate(-70,-6) scale(1,1)"><rect fill="#C0C0C0" stroke="none" x="831" y="311" width="231" height="57" opacity="0.2"/></g><g transform="translate(-70,-6) scale(1,1)"><rect fill="#ffffff" stroke="none" x="824" y="304" width="231" height="57"/></g><g transform="translate(-70,-6) scale(1,1)"><path fill="none" stroke="#000000" d="M 824 304 L 1055 304 L 1055 361 L 824 361 L 824 304 Z Z" stroke-miterlimit="10"/></g><g transform="translate(-70,-6) scale(1,1)"><path fill="none" stroke="#000000" d="M 824 329 L 1055 329" stroke-miterlimit="10"/></g><g transform="translate(-70,-6) scale(1,1)"><path fill="none" stroke="#000000" d="M 824 352 L 1055 352" stroke-miterlimit="10"/></g><g transform="translate(-70,-6) scale(1,1)"><g><path fill="none" stroke="none"/><text fill="#000000" stroke="none" font-family="Arial" font-size="13px" font-style="normal" font-weight="bold" text-decoration="none" x="906.266845703125" y="323.5">BulletWorld</text></g></g><g transform="translate(-70,-6) scale(1,1)"><g><path fill="none" stroke="none"/><text fill="#000000" stroke="none" font-family="Arial" font-size="13px" font-style="normal" font-weight="normal" text-decoration="none" x="829" y="346.5">+world: btDiscreteDynamicWorld</text></g></g><g transform="translate(-70,-6) scale(1,1)"><path fill="none" stroke="#000000" d="M 641 519 L 532 371" stroke-miterlimit="10"/></g><g transform="translate(-70,-6) scale(1,1)"><path fill="#FFFFFF" stroke="none" d="M 550.8321503177973 382.373219175233 L 532 371 L 537.2742607913108 392.35842159676696"/></g><g transform="translate(-70,-6) scale(1,1)"><path fill="none" stroke="#000000" d="M 550.8321503177973 382.373219175233 L 532 371 L 537.2742607913108 392.35842159676696 L 550.8321503177973 382.373219175233" stroke-miterlimit="10"/></g><g transform="translate(-70,-6) scale(1,1)"><path fill="none" stroke="#000000" d="M 497 519 L 488 371" stroke-miterlimit="10"/></g><g transform="translate(-70,-6) scale(1,1)"><path fill="#FFFFFF" stroke="none" d="M 497.63723392403216 390.7768481385049 L 488 371 L 480.8302100303308 391.7988968887975"/></g><g transform="translate(-70,-6) scale(1,1)"><path fill="none" stroke="#000000" d="M 497.63723392403216 390.7768481385049 L 488 371 L 480.8302100303308 391.7988968887975 L 497.63723392403216 390.7768481385049" stroke-miterlimit="10"/></g><g transform="translate(-70,-6) scale(1,1)"><path fill="none" stroke="#000000" d="M 355 519 L 444 371" stroke-miterlimit="10"/></g><g transform="translate(-70,-6) scale(1,1)"><path fill="#FFFFFF" stroke="none" d="M 440.74034970639383 392.75717536729877 L 444 371 L 426.31043293141244 384.07972541477625"/></g><g transform="translate(-70,-6) scale(1,1)"><path fill="none" stroke="#000000" d="M 440.74034970639383 392.75717536729877 L 444 371 L 426.31043293141244 384.07972541477625 L 440.74034970639383 392.75717536729877" stroke-miterlimit="10"/></g><g transform="translate(-70,-6) scale(1,1)"><path fill="none" stroke="#000000" d="M 328 310 L 415 307" stroke-miterlimit="10"/></g><g transform="translate(-70,-6) scale(1,1)"><path fill="none" stroke="#000000" d="M 404.98843133987083 311.55724620396126 L 415 307 L 404.69829221575026 303.1432116044656" stroke-miterlimit="10"/></g><g transform="translate(-70,-6) scale(1,1)"><path fill="none" stroke="#000000" d="M 288 150 L 543 112" stroke-miterlimit="10"/></g><g transform="translate(-70,-6) scale(1,1)"><path fill="none" stroke="#000000" d="M 533.5687697525045 117.66143939459988 L 543 112 L 532.3278709498661 109.33435532426255" stroke-miterlimit="10"/></g><g transform="translate(-70,-6) scale(1,1)"><path fill="none" stroke="#000000" d="M 256 194 L 415 271" stroke-miterlimit="10"/></g><g transform="translate(-70,-6) scale(1,1)"><path fill="none" stroke="#000000" d="M 404.0186828170182 270.3591623241815 L 415 271 L 407.6881768197643 262.7818954873421" stroke-miterlimit="10"/></g><g transform="translate(-70,-6) scale(1,1)"><path fill="none" stroke="#000000" d="M 696 335 L 653 184" stroke-miterlimit="10"/></g><g transform="translate(-70,-6) scale(1,1)"><path fill="none" stroke="#000000" d="M 659.8319136469436 192.62119225633586 L 653 184 L 651.7347889618667 194.9269959746028" stroke-miterlimit="10"/></g><g transform="translate(-70,-6) scale(1,1)"><path fill="none" stroke="#000000" d="M 900 303 L 714 163" stroke-miterlimit="10"/></g><g transform="translate(-70,-6) scale(1,1)"><path fill="none" stroke="#000000" d="M 724.651144111581 165.74829567447424 L 714 163 L 719.5881577205677 172.47483473682047" stroke-miterlimit="10"/></g><g transform="translate(-70,-6) scale(1,1)"><path fill="none" stroke="#000000" d="M 871 164 L 714 122" stroke-miterlimit="10"/></g><g transform="translate(-70,-6) scale(1,1)"><path fill="none" stroke="#000000" d="M 724.9053121103275 120.5598028689292 L 714 122 L 722.7295933017939 128.69284698654278" stroke-miterlimit="10"/></g><g transform="translate(-70,-6) scale(1,1)"><path fill="none" stroke="#000000" d="M 530 239 L 569 184" stroke-miterlimit="10"/></g><g transform="translate(-70,-6) scale(1,1)"><path fill="none" stroke="#000000" d="M 566.555458497074 194.72493435133626 L 569 184 L 559.6877743187787 189.85512193399956" stroke-miterlimit="10"/></g></g></svg>